<svg width="60" height="60" viewBox="0 0 60 60" fill="none" xmlns="http://www.w3.org/2000/svg">
    <g clip-path="url(#clip0_62_57)">
        <path d="M1.97057 35.2197L3.33764 34.5021C3.9441 35.7049 4.88412 36.2836 6.15517 36.2836C7.42622 36.2836 8.24241 35.8818 8.24241 34.9569C8.24241 34.0321 7.60563 33.6581 5.92016 33.1603C3.9441 32.5791 2.35466 32.0408 2.35466 30.0926C2.35466 28.3515 3.77733 27.2043 5.84941 27.2043C7.92149 27.2043 9.05609 28.1999 9.67771 29.4002L8.4193 30.272C7.81284 29.2486 6.94105 28.7786 5.83678 28.7786C4.73251 28.7786 4.05529 29.193 4.05529 29.9384C4.05529 30.8911 4.7881 31.2095 6.4584 31.7073C8.39403 32.2733 9.94051 32.9101 9.94051 34.8306C9.94051 36.5034 8.51785 37.8149 6.08441 37.8149C4.05276 37.8149 2.61494 36.7637 1.96552 35.2172L1.97057 35.2197ZM11.2015 35.854C11.2015 34.2645 12.5559 33.2007 15.9824 32.8141V32.5942C15.9824 31.8614 15.5958 31.543 14.7796 31.543C13.7562 31.543 12.9273 32.0408 12.3057 32.5386L11.4769 31.4748C12.2653 30.7572 13.4934 30.1482 15.0146 30.1482C16.9755 30.1482 17.6527 31.0882 17.6527 32.8014V35.8287C17.6527 36.7131 17.7083 37.2514 17.8599 37.6254H16.1467C16.0506 37.3221 15.9799 37.0997 15.9799 36.6853C15.2344 37.4459 14.3626 37.7365 13.271 37.7365C12.0834 37.7365 11.1989 37.0745 11.1989 35.8565L11.2015 35.854ZM15.9824 35.5785V33.9613C13.9508 34.2367 12.8743 34.7345 12.8743 35.5356C12.8743 36.1168 13.2761 36.42 13.8977 36.42C14.7695 36.42 15.4442 36.089 15.9849 35.5785H15.9824ZM20.445 37.6228V31.6391H19.1739V30.2846H20.445V29.5392C20.445 28.3086 20.9554 27.3559 22.8228 27.3559C23.1412 27.3559 23.7072 27.4115 23.8311 27.4241V28.7356C23.7199 28.7078 23.4444 28.68 23.2499 28.68C22.6409 28.68 22.1456 28.8468 22.1456 29.6327V30.2821H23.7477V31.6365H22.1456V37.6203H20.445V37.6228ZM24.6195 33.9613C24.6195 31.169 26.5955 30.1482 28.1167 30.1482C29.7618 30.1482 31.336 31.1286 31.336 34.1129V34.5147H26.3201C26.3883 35.8413 27.2045 36.4225 28.281 36.4225C29.2336 36.4225 29.787 36.1041 30.3404 35.5659L31.2375 36.4503C30.4769 37.2943 29.4686 37.777 28.1546 37.777C26.3176 37.777 24.6169 36.6575 24.6169 33.9638L24.6195 33.9613ZM29.7744 33.2437C29.6784 32.1242 29.125 31.5304 28.1016 31.5304C27.2727 31.5304 26.5121 32.0004 26.3479 33.2437H29.7744Z" fill="#162B75"/>
        <path d="M33.4637 37.6228V27.3989H34.6792V32.6776L39.3085 27.3989H40.7741L37.2642 31.2954L41.2568 37.6228H39.8619L36.4632 32.2203L34.6792 34.1685V37.6228H33.4637Z" fill="#162B75"/>
        <path d="M41.9214 33.9765C41.9214 31.3232 43.6902 30.176 45.2241 30.176C46.9525 30.176 48.264 31.3914 48.264 34.0321V34.2797H43.109C43.1495 35.9247 44.1046 36.8092 45.3075 36.8092C46.3587 36.8092 46.9525 36.3796 47.5034 35.6215L48.1932 36.2305C47.516 37.1983 46.5911 37.777 45.2215 37.777C43.4931 37.777 41.9188 36.5186 41.9188 33.9765H41.9214ZM47.1319 33.3548C47.0359 32.056 46.4143 31.1716 45.2114 31.1716C44.231 31.1716 43.3036 31.8488 43.1393 33.3548H47.1319Z" fill="#162B75"/>
        <path d="M49.1332 40.2483L49.4087 39.2957C49.6159 39.3513 49.9747 39.4195 50.4852 39.4195C51.2331 39.4195 51.5919 39.1011 51.8825 38.3834L52.158 37.6658L49.3405 30.3276H50.5989L52.7417 36.228H52.7695L54.9098 30.3276H56.1126L52.9893 38.4542C52.4915 39.7379 51.9255 40.4303 50.5028 40.4303C49.8534 40.4303 49.4516 40.3469 49.1358 40.2508L49.1332 40.2483Z" fill="#162B75"/>
        <path d="M56.5523 31.4116C56.5523 30.7774 57.04 30.2897 57.6743 30.2897C58.3085 30.2897 58.7811 30.7723 58.7811 31.4015C58.7811 32.0307 58.2934 32.5235 57.6591 32.5235C57.0248 32.5235 56.5523 32.0408 56.5523 31.4116ZM58.5536 31.4116C58.5536 30.8936 58.1721 30.4969 57.6591 30.4969C57.1461 30.4969 56.7797 30.8835 56.7797 31.4015C56.7797 31.9195 57.1562 32.3112 57.6743 32.3112C58.1923 32.3112 58.5536 31.9297 58.5536 31.4116ZM57.2245 30.7723H57.6995C57.9952 30.7723 58.1695 30.9037 58.1695 31.1741C58.1695 31.3636 58.0887 31.4647 57.9522 31.5279L58.1948 31.9928H57.8865L57.6692 31.5632H57.5252V31.9928H57.2295V30.7748L57.2245 30.7723ZM57.6793 31.3434C57.8107 31.3434 57.8815 31.3004 57.8815 31.1893C57.8815 31.0781 57.8082 31.0351 57.6793 31.0351H57.5201V31.3434H57.6793Z" fill="#162B75"/>
        <path d="M9.99358 20.0431H10.2918L11.3051 22.9162H11.0195L10.7138 22.0343H9.55389L9.24813 22.9162H8.98028L9.99358 20.0431ZM10.6278 21.7918L10.1376 20.3691H10.13L9.63981 21.7918H10.6304H10.6278Z" fill="#878A8F"/>
        <path d="M11.9671 20.0531H12.3234L13.2836 22.5598H13.2912L14.2414 20.0531H14.6052V22.9161H14.3298V20.518H14.3222C14.2843 20.6444 14.2136 20.8339 14.1453 21.0209L13.4024 22.9161H13.1522L12.4093 21.0209C12.3386 20.8364 12.2931 20.7151 12.2324 20.5104H12.2249V22.9161H11.9696V20.0531H11.9671Z" fill="#878A8F"/>
        <path d="M15.4896 20.0531H17.1979V20.3083H15.7626V21.2786H16.834V21.5263H15.7626V22.6634H17.2787V22.9136H15.4871V20.0531H15.4896Z" fill="#878A8F"/>
        <path d="M17.9812 20.0531H18.9415C19.5808 20.0531 19.9345 20.3235 19.9345 20.8263C19.9345 21.2913 19.6642 21.5212 19.2497 21.5996L19.9724 22.9136H19.6642L18.9642 21.6299H18.2516V22.9136H17.9812V20.0531ZM18.9212 21.3873C19.3938 21.3873 19.6591 21.2508 19.6591 20.8389C19.6591 20.4271 19.3963 20.3058 18.9162 20.3058H18.2516V21.3873H18.9212Z" fill="#878A8F"/>
        <path d="M20.7684 20.0531H21.0439V22.9161H20.7684V20.0531Z" fill="#878A8F"/>
        <path d="M21.8323 21.4732C21.8323 20.6065 22.3073 20 23.0224 20C23.6036 20 23.9246 20.3437 24.0585 20.8743L23.7957 20.94C23.6693 20.4877 23.4545 20.2527 23.0174 20.2527C22.464 20.2527 22.1052 20.7328 22.1052 21.4681C22.1052 22.2616 22.469 22.724 23.025 22.724C23.4495 22.724 23.7173 22.4764 23.8412 21.9963L24.104 22.0544C23.965 22.6179 23.5935 22.9717 23.0199 22.9717C22.2972 22.9717 21.8297 22.388 21.8297 21.4757L21.8323 21.4732Z" fill="#878A8F"/>
        <path d="M25.514 20.043H25.8122L26.8255 22.9161H26.5399L26.2342 22.0342H25.0743L24.7686 22.9161H24.5007L25.514 20.043ZM26.1483 21.7916L25.658 20.3689H25.6505L25.1602 21.7916H26.1508H26.1483Z" fill="#878A8F"/>
        <path d="M27.485 20.0531H27.7781L29.3549 22.4132H29.3625V20.0531H29.6228V22.9161H29.3802L27.7529 20.4826H27.7453V22.9161H27.485V20.0531Z" fill="#878A8F"/>
        <path d="M31.523 20.0531H33.2312V20.3083H31.7959V21.2786H32.8674V21.5263H31.7959V22.6634H33.3121V22.9136H31.5205V20.0531H31.523Z" fill="#878A8F"/>
        <path d="M34.7676 21.3797L33.8983 20.0531H34.2167L34.9293 21.1624L35.6419 20.0531H35.9351L35.0734 21.3797L36.0665 22.9161H35.7733L34.9142 21.597L34.055 22.9161H33.772L34.7701 21.3797H34.7676Z" fill="#878A8F"/>
        <path d="M36.7108 20.0531H37.661C38.2826 20.0531 38.6616 20.3083 38.6616 20.8339C38.6616 21.41 38.2371 21.645 37.6332 21.645H36.9837V22.9136H36.7083V20.0531H36.7108ZM37.6534 21.4025C38.1259 21.4025 38.3887 21.2559 38.3887 20.8415C38.3887 20.4549 38.1284 20.3032 37.6509 20.3032H36.9863V21.405H37.6559L37.6534 21.4025Z" fill="#878A8F"/>
        <path d="M39.3515 20.0531H40.3117C40.951 20.0531 41.3048 20.3235 41.3048 20.8263C41.3048 21.2913 41.0344 21.5212 40.62 21.5996L41.3427 22.9136H41.0344L40.3345 21.6299H39.6219V22.9136H39.3515V20.0531ZM40.2915 21.3873C40.764 21.3873 41.0294 21.2508 41.0294 20.8389C41.0294 20.4271 40.7666 20.3058 40.2864 20.3058H39.6219V21.3873H40.2915Z" fill="#878A8F"/>
        <path d="M42.1008 20.0531H43.809V20.3083H42.3737V21.2786H43.4451V21.5263H42.3737V22.6634H43.8898V22.9136H42.0983V20.0531H42.1008Z" fill="#878A8F"/>
        <path d="M44.375 22.2111L44.6176 22.1226C44.7439 22.5219 45.0345 22.7266 45.4363 22.7266C45.8659 22.7266 46.1439 22.5295 46.1439 22.2085C46.1439 21.9104 45.9998 21.7587 45.3934 21.5667C44.7793 21.3721 44.466 21.2079 44.466 20.7353C44.466 20.326 44.8324 20 45.3555 20C45.8785 20 46.202 20.2754 46.3384 20.657L46.106 20.7657C45.9619 20.3942 45.7118 20.2476 45.3529 20.2476C44.9688 20.2476 44.7389 20.4523 44.7389 20.7151C44.7389 21.036 44.9284 21.1447 45.5324 21.3367C46.1287 21.5263 46.4218 21.7234 46.4218 22.1883C46.4218 22.6533 45.9998 22.9691 45.4287 22.9691C44.8905 22.9691 44.5115 22.676 44.3775 22.2111H44.375Z" fill="#878A8F"/>
        <path d="M47.0005 22.2111L47.2431 22.1226C47.3694 22.5219 47.66 22.7266 48.0618 22.7266C48.4914 22.7266 48.7693 22.5295 48.7693 22.2085C48.7693 21.9104 48.6253 21.7587 48.0188 21.5667C47.4048 21.3721 47.0915 21.2079 47.0915 20.7353C47.0915 20.326 47.4579 20 47.9809 20C48.504 20 48.8275 20.2754 48.9639 20.657L48.7314 20.7657C48.5874 20.3942 48.3372 20.2476 47.9784 20.2476C47.5943 20.2476 47.3644 20.4523 47.3644 20.7151C47.3644 21.036 47.5539 21.1447 48.1578 21.3367C48.7542 21.5263 49.0473 21.7234 49.0473 22.1883C49.0473 22.6533 48.6253 22.9691 48.0542 22.9691C47.516 22.9691 47.1369 22.676 47.003 22.2111H47.0005Z" fill="#878A8F"/>
    </g>
    <defs>
        <clipPath id="clip0_62_57">
            <rect width="56.8105" height="20.4277" fill="white" transform="translate(1.97057 20)"/>
        </clipPath>
    </defs>
</svg>
