<svg width="60" height="61" viewBox="0 0 60 61" fill="none" xmlns="http://www.w3.org/2000/svg">
    <g clip-path="url(#clip0_65_51)">
        <path d="M48.3401 49.5766H48.2622V49.7764H48.2249V49.5766H48.1504V49.5427H48.3401V49.5766ZM48.6314 49.7764H48.5942V49.5833L48.523 49.7527H48.4858L48.4146 49.5867V49.7764H48.3774V49.5427H48.435L48.5061 49.7087L48.5738 49.5427H48.6314V49.7764ZM12.9505 49.7764H12.4356V43.8482H12.9505V49.7764ZM16.8902 43.8482C17.3424 43.8429 17.7923 43.9127 18.2216 44.0549C18.5973 44.1808 18.9432 44.3826 19.2378 44.6477C19.5177 44.9082 19.7363 45.2275 19.878 45.5826C20.1762 46.3753 20.1762 47.2493 19.878 48.042C19.7363 48.3971 19.5177 48.7164 19.2378 48.977C18.9441 49.2433 18.5979 49.4452 18.2216 49.5698C17.7927 49.7136 17.3425 49.7834 16.8902 49.7764H14.7256V43.8482H16.8902ZM15.2405 44.3394V49.2852H16.8902C17.2781 49.2927 17.6643 49.2331 18.0318 49.1091C18.3421 49.0063 18.6264 48.8376 18.8652 48.6145C19.0927 48.3963 19.2686 48.1302 19.3801 47.8354C19.498 47.5097 19.5566 47.1655 19.5528 46.8191C19.5572 46.4727 19.4987 46.1284 19.3801 45.8028C19.2686 45.507 19.0927 45.2397 18.8652 45.0203C18.6257 44.7974 18.3417 44.6276 18.0318 44.5224C17.6637 44.4012 17.2778 44.3427 16.8902 44.3496L15.2405 44.3394ZM26.4363 43.7805C26.6849 43.7809 26.9326 43.8093 27.1748 43.8652C27.4093 43.9202 27.6366 44.002 27.8523 44.1091C28.0551 44.2126 28.244 44.3412 28.4146 44.4919C28.5821 44.6393 28.727 44.8105 28.8449 45L28.4112 45.2879C28.311 45.1324 28.1889 44.9921 28.0488 44.8713C27.9095 44.7458 27.7547 44.6388 27.5881 44.5528C27.4164 44.4632 27.2344 44.395 27.0461 44.3496C26.8494 44.3046 26.6483 44.2819 26.4465 44.2818C26.1103 44.2787 25.7766 44.3408 25.4641 44.4648C25.1667 44.579 24.8967 44.7545 24.6714 44.9797C24.4445 45.2089 24.2649 45.4805 24.143 45.7791C23.8857 46.4439 23.8857 47.1808 24.143 47.8455C24.264 48.1456 24.4437 48.4185 24.6714 48.6484C24.8984 48.8715 25.168 49.0466 25.4641 49.1633C25.7766 49.2872 26.1103 49.3494 26.4465 49.3462C26.6483 49.3462 26.8494 49.3235 27.0461 49.2785C27.2328 49.2332 27.4136 49.1662 27.5847 49.0786C27.7513 48.9926 27.9061 48.8856 28.0454 48.7602C28.1865 48.6377 28.3086 48.495 28.4079 48.3367L28.8313 48.6484C28.7069 48.8319 28.5601 48.9992 28.3943 49.1463C28.2233 49.2931 28.0357 49.4193 27.8354 49.5224C27.626 49.6296 27.4041 49.7103 27.1748 49.7629C26.5313 49.9077 25.8592 49.8582 25.2439 49.6206C24.8841 49.4787 24.5559 49.2668 24.2785 48.9973C24.0041 48.7236 23.7875 48.3976 23.6416 48.0386C23.3345 47.2511 23.3345 46.3769 23.6416 45.5894C23.7875 45.2304 24.0041 44.9044 24.2785 44.6308C24.5557 44.3602 24.8839 44.1472 25.2439 44.0041C25.6234 43.854 26.0282 43.7781 26.4363 43.7805ZM30.5928 46.4905C30.6664 46.3642 30.759 46.25 30.8672 46.1518C30.9689 46.0578 31.0828 45.978 31.206 45.9146C31.3301 45.8545 31.4608 45.809 31.5955 45.7791C31.7292 45.7511 31.8654 45.7363 32.002 45.7351C32.2326 45.733 32.4618 45.7708 32.6795 45.8469C32.8767 45.9231 33.0564 46.0383 33.208 46.1856C33.3566 46.3269 33.4723 46.4993 33.5468 46.6904C33.6288 46.9067 33.669 47.1366 33.6653 47.3679V49.8103H33.1843V47.5169C33.1876 47.3327 33.1589 47.1494 33.0996 46.9749C33.0482 46.8211 32.9625 46.6809 32.8489 46.565C32.7358 46.4506 32.5979 46.3637 32.4458 46.311C32.2724 46.2472 32.0886 46.2161 31.9038 46.2195C31.7256 46.2192 31.5488 46.2514 31.3821 46.3144C31.2244 46.3757 31.0805 46.4679 30.9587 46.5854C30.8382 46.7062 30.7417 46.8487 30.6741 47.0054C30.6051 47.1753 30.5705 47.3573 30.5725 47.5406V49.8103H30.0881V43.7127H30.5725L30.5928 46.4905ZM36.836 45.7351C37.0913 45.7329 37.3442 45.7848 37.5779 45.8875C37.8008 45.9829 38.0007 46.125 38.164 46.3042C38.3347 46.4918 38.4681 46.7102 38.5569 46.9478C38.6546 47.2101 38.7051 47.4877 38.706 47.7676C38.706 47.8049 38.706 47.8387 38.706 47.8726C38.7076 47.9042 38.7076 47.9359 38.706 47.9675H35.3659C35.3778 48.1811 35.4307 48.3904 35.5217 48.584C35.6018 48.7592 35.7171 48.916 35.8604 49.0447C36.0001 49.17 36.1621 49.2677 36.3381 49.3327C36.5219 49.3976 36.7157 49.4297 36.9106 49.4275C37.1682 49.4317 37.4237 49.3797 37.6592 49.2751C37.8803 49.1727 38.082 49.0329 38.2554 48.8618L38.5163 49.2005C38.3983 49.3204 38.2677 49.4272 38.1267 49.519C38.0014 49.6013 37.8673 49.6694 37.727 49.7222C37.591 49.7719 37.4502 49.8071 37.3069 49.8272C37.1656 49.8477 37.0229 49.8579 36.8801 49.8577C36.6054 49.8603 36.3327 49.8097 36.0772 49.7087C35.8381 49.6128 35.6213 49.4687 35.4404 49.2852C35.2603 49.0997 35.1197 48.8796 35.0271 48.6382C34.9239 48.3727 34.8733 48.0897 34.878 47.8049C34.8755 47.5214 34.9261 47.2399 35.0271 46.9749C35.1153 46.733 35.2486 46.5099 35.4201 46.3177C35.5977 46.1342 35.8109 45.989 36.0468 45.8909C36.296 45.7833 36.5646 45.728 36.836 45.7283V45.7351ZM36.836 46.1653C36.646 46.1628 36.4573 46.1973 36.2805 46.2669C36.1158 46.3341 35.9652 46.4318 35.8367 46.5549C35.7067 46.6813 35.6011 46.8306 35.5251 46.9953C35.4424 47.1716 35.3897 47.3605 35.3692 47.5542H38.2215C38.2076 47.3587 38.1595 47.1673 38.0793 46.9885C38.01 46.8234 37.9086 46.6738 37.7812 46.5481C37.6579 46.4234 37.5105 46.3252 37.348 46.2594C37.1855 46.1936 37.0113 46.1616 36.836 46.1653ZM41.6599 45.7351C41.9421 45.7332 42.2219 45.7873 42.4831 45.8943C42.7299 45.9969 42.95 46.1544 43.1267 46.355L42.815 46.6938C42.6646 46.5408 42.4864 46.4178 42.29 46.3313C42.0868 46.2439 41.8675 46.2 41.6463 46.2026C41.4369 46.2011 41.2294 46.2426 41.0366 46.3245C40.8526 46.403 40.6866 46.5183 40.5488 46.6633C40.4027 46.808 40.2874 46.9809 40.21 47.1714C40.0564 47.5856 40.0564 48.0411 40.21 48.4553C40.2874 48.6458 40.4027 48.8187 40.5488 48.9634C40.6916 49.109 40.8626 49.224 41.0513 49.3015C41.2399 49.3789 41.4424 49.4172 41.6463 49.414C41.8715 49.4169 42.0947 49.3706 42.3001 49.2785C42.4965 49.1916 42.6756 49.07 42.8286 48.9194L43.1267 49.2581C42.949 49.459 42.7277 49.6166 42.4797 49.7188C41.951 49.9289 41.362 49.9289 40.8333 49.7188C40.5923 49.6182 40.3735 49.4708 40.1897 49.2852C40.006 49.0993 39.8619 48.878 39.7663 48.6348C39.6655 48.3757 39.615 48.0998 39.6172 47.8218C39.6153 47.5416 39.6659 47.2636 39.7663 47.002C39.8618 46.7591 40.0057 46.5381 40.1891 46.3524C40.3725 46.1667 40.5917 46.02 40.8333 45.9214C41.0909 45.8027 41.3697 45.737 41.6531 45.7283L41.6599 45.7351ZM44.7493 47.4797H45.3963L47.0732 45.7859H47.6829L45.7859 47.666L47.7168 49.7696H47.1037L45.4099 47.9031H44.7629V49.7696H44.2615V43.6721H44.7425L44.7493 47.4797ZM17.4661 40.7927V38.7602C17.478 38.5892 17.4533 38.4177 17.3936 38.2571C17.334 38.0965 17.2408 37.9504 17.1203 37.8286C16.9998 37.7068 16.8547 37.612 16.6947 37.5507C16.5347 37.4894 16.3635 37.4629 16.1924 37.4729C15.9685 37.4582 15.7448 37.5039 15.5446 37.6052C15.3444 37.7065 15.175 37.8597 15.0542 38.0488C14.9441 37.8654 14.7865 37.7151 14.5981 37.6137C14.4097 37.5124 14.1975 37.4637 13.9837 37.4729C13.7974 37.4635 13.6119 37.5029 13.4455 37.5873C13.2791 37.6717 13.1377 37.798 13.0352 37.9539V37.5542H12.3306V40.7927H13.042V38.9973C13.0269 38.8865 13.0364 38.7738 13.0699 38.6672C13.1034 38.5606 13.16 38.4626 13.2358 38.3804C13.3115 38.2982 13.4044 38.2338 13.508 38.1917C13.6115 38.1496 13.7231 38.1308 13.8347 38.1369C14.3022 38.1369 14.5393 38.4417 14.5393 38.9905V40.7927H15.2507V38.9973C15.2362 38.8867 15.2461 38.7742 15.2798 38.6678C15.3136 38.5614 15.3702 38.4638 15.4458 38.3817C15.5214 38.2997 15.6141 38.2352 15.7174 38.1929C15.8206 38.1506 15.9319 38.1314 16.0434 38.1369C16.5244 38.1369 16.7547 38.4417 16.7547 38.9905V40.7927H17.4661ZM27.9675 37.5542H26.8157V36.5718H26.1043V37.5542H25.4472V38.1877H26.1043V39.6646C26.1043 40.4167 26.3957 40.8638 27.229 40.8638C27.5403 40.8647 27.8456 40.7778 28.1098 40.6131L27.9065 40.0102C27.7221 40.1313 27.51 40.2036 27.29 40.2202C26.9512 40.2202 26.8225 40.0034 26.8225 39.6782V38.1877H27.9675V37.5542ZM33.977 37.4729C33.8052 37.4678 33.6352 37.5092 33.485 37.5927C33.3347 37.6762 33.2098 37.7986 33.1233 37.9472V37.5542H32.4255V40.7927H33.1301V38.977C33.1301 38.4417 33.3604 38.1436 33.8076 38.1436C33.9583 38.1416 34.1079 38.1692 34.248 38.2249L34.4648 37.5474C34.3039 37.4898 34.1343 37.46 33.9634 37.4593L33.977 37.4729ZM24.895 37.8117C24.4961 37.5745 24.0376 37.4569 23.5738 37.4729C22.7541 37.4729 22.2188 37.8659 22.2188 38.5095C22.2188 39.0379 22.6118 39.3631 23.3367 39.4648L23.6755 39.5122C24.0617 39.5664 24.2446 39.668 24.2446 39.8509C24.2446 40.1016 23.9871 40.2439 23.5061 40.2439C23.1192 40.2551 22.7397 40.1358 22.4289 39.9051L22.0901 40.4539C22.5005 40.7405 22.9922 40.8877 23.4926 40.874C24.4275 40.874 24.9661 40.4336 24.9661 39.8171C24.9661 39.2005 24.5427 38.9499 23.8381 38.8482L23.4993 38.8008C23.1944 38.7602 22.9505 38.6992 22.9505 38.4824C22.9505 38.2656 23.1809 38.103 23.5671 38.103C23.924 38.1071 24.2739 38.2028 24.5833 38.3808L24.895 37.8117ZM43.7669 37.4729C43.5952 37.4678 43.4252 37.5092 43.2749 37.5927C43.1247 37.6762 42.9998 37.7986 42.9133 37.9472V37.5542H42.2154V40.7927H42.9201V38.977C42.9201 38.4417 43.1504 38.1436 43.5976 38.1436C43.7483 38.1416 43.8979 38.1692 44.0379 38.2249L44.2547 37.5474C44.0938 37.4898 43.9243 37.46 43.7534 37.4593L43.7669 37.4729ZM34.6883 39.1667C34.68 39.3942 34.7192 39.6211 34.8035 39.8326C34.8878 40.0442 35.0154 40.2358 35.178 40.3952C35.3406 40.5547 35.5347 40.6784 35.7479 40.7585C35.9611 40.8386 36.1886 40.8733 36.416 40.8604C36.8391 40.882 37.2548 40.7442 37.5813 40.4743L37.2426 39.9051C36.999 40.0909 36.702 40.1931 36.3957 40.1965C36.1352 40.1754 35.8923 40.0571 35.7151 39.865C35.5379 39.6729 35.4396 39.4212 35.4396 39.1599C35.4396 38.8986 35.5379 38.6469 35.7151 38.4548C35.8923 38.2627 36.1352 38.1444 36.3957 38.1233C36.702 38.1267 36.999 38.2289 37.2426 38.4146L37.5813 37.8455C37.2548 37.5756 36.8391 37.4378 36.416 37.4593C36.1886 37.4465 35.9611 37.4812 35.7479 37.5613C35.5347 37.6414 35.3406 37.7651 35.178 37.9246C35.0154 38.084 34.8878 38.2756 34.8035 38.4872C34.7192 38.6987 34.68 38.9255 34.6883 39.1531V39.1667ZM41.2873 39.1667V37.5474H40.5827V37.9404C40.463 37.7864 40.3084 37.6631 40.1317 37.5807C39.955 37.4982 39.7613 37.4589 39.5664 37.4661C39.1172 37.4661 38.6864 37.6446 38.3687 37.9622C38.0511 38.2799 37.8726 38.7107 37.8726 39.1599C37.8726 39.6091 38.0511 40.0399 38.3687 40.3576C38.6864 40.6752 39.1172 40.8537 39.5664 40.8537C39.7613 40.8608 39.955 40.8216 40.1317 40.7391C40.3084 40.6567 40.463 40.5334 40.5827 40.3794V40.7724H41.2873V39.1667ZM38.6653 39.1667C38.6765 38.976 38.7433 38.7929 38.8573 38.6397C38.9713 38.4865 39.1277 38.37 39.3071 38.3046C39.4865 38.2391 39.6811 38.2276 39.8669 38.2713C40.0528 38.3151 40.2218 38.4122 40.3532 38.5508C40.4846 38.6894 40.5725 38.8634 40.6062 39.0514C40.6399 39.2393 40.618 39.4331 40.543 39.6087C40.468 39.7843 40.3433 39.9342 40.1842 40.0398C40.0251 40.1454 39.8387 40.2023 39.6477 40.2033C39.5136 40.205 39.3805 40.1789 39.257 40.1267C39.1334 40.0744 39.022 39.9972 38.9297 39.8999C38.8375 39.8025 38.7663 39.6871 38.7208 39.5609C38.6753 39.4347 38.6564 39.3005 38.6653 39.1667ZM30.1626 37.4729C29.7134 37.4792 29.2851 37.6637 28.9719 37.9858C28.6587 38.3078 28.4863 38.7412 28.4925 39.1904C28.4988 39.6396 28.6833 40.0679 29.0054 40.3811C29.3275 40.6943 29.7608 40.8667 30.21 40.8604C30.6934 40.8774 31.1661 40.7158 31.5379 40.4065L31.1992 39.8848C30.9317 40.0993 30.6003 40.2186 30.2575 40.2236C30.0247 40.2427 29.7936 40.1708 29.6129 40.0229C29.4322 39.8751 29.3159 39.6628 29.2886 39.4309H31.6938C31.6938 39.3428 31.6938 39.2547 31.6938 39.1599C31.6938 38.1436 31.0637 37.4661 30.1558 37.4661L30.1626 37.4729ZM30.1626 38.103C30.268 38.1007 30.3729 38.1193 30.4712 38.1576C30.5694 38.1958 30.6592 38.2531 30.7353 38.3261C30.8114 38.3991 30.8724 38.4863 30.9148 38.5829C30.9572 38.6795 30.9802 38.7835 30.9824 38.8889H29.2886C29.3009 38.6714 29.3978 38.4674 29.5586 38.3205C29.7194 38.1736 29.9314 38.0955 30.1491 38.103H30.1626ZM47.8388 39.1734V36.2534H47.1341V37.9472C47.0145 37.7932 46.8599 37.6699 46.6832 37.5874C46.5065 37.505 46.3127 37.4657 46.1179 37.4729C45.6687 37.4729 45.2379 37.6513 44.9202 37.969C44.6026 38.2866 44.4241 38.7175 44.4241 39.1667C44.4241 39.6159 44.6026 40.0467 44.9202 40.3643C45.2379 40.682 45.6687 40.8604 46.1179 40.8604C46.3127 40.8676 46.5065 40.8284 46.6832 40.7459C46.8599 40.6634 47.0145 40.5401 47.1341 40.3862V40.7791H47.8388V39.1734ZM45.2168 39.1734C45.228 38.9828 45.2948 38.7996 45.4088 38.6465C45.5228 38.4933 45.6792 38.3768 45.8586 38.3113C46.0379 38.2459 46.2326 38.2343 46.4184 38.2781C46.6043 38.3218 46.7733 38.419 46.9047 38.5576C47.036 38.6962 47.124 38.8702 47.1577 39.0582C47.1914 39.2461 47.1695 39.4398 47.0945 39.6154C47.0195 39.7911 46.8948 39.9409 46.7357 40.0466C46.5766 40.1522 46.3901 40.209 46.1992 40.21C46.0651 40.2117 45.932 40.1856 45.8085 40.1334C45.6849 40.0812 45.5735 40.004 45.4812 39.9066C45.389 39.8093 45.3178 39.6939 45.2723 39.5677C45.2268 39.4415 45.2079 39.3073 45.2168 39.1734ZM21.4262 39.1734V37.5542H20.7215V37.9472C20.6019 37.7932 20.4473 37.6699 20.2706 37.5874C20.0939 37.505 19.9001 37.4657 19.7053 37.4729C19.2561 37.4729 18.8253 37.6513 18.5076 37.969C18.19 38.2866 18.0115 38.7175 18.0115 39.1667C18.0115 39.6159 18.19 40.0467 18.5076 40.3643C18.8253 40.682 19.2561 40.8604 19.7053 40.8604C19.9001 40.8676 20.0939 40.8284 20.2706 40.7459C20.4473 40.6634 20.6019 40.5401 20.7215 40.3862V40.7791H21.4262V39.1734ZM18.8042 39.1734C18.8154 38.9828 18.8822 38.7996 18.9962 38.6465C19.1102 38.4933 19.2666 38.3768 19.446 38.3113C19.6253 38.2459 19.82 38.2343 20.0058 38.2781C20.1917 38.3218 20.3607 38.419 20.4921 38.5576C20.6234 38.6962 20.7114 38.8702 20.7451 39.0582C20.7788 39.2461 20.7569 39.4398 20.6819 39.6154C20.6069 39.7911 20.4822 39.9409 20.3231 40.0466C20.164 40.1522 19.9775 40.209 19.7866 40.21C19.6519 40.2127 19.5181 40.1873 19.3938 40.1355C19.2694 40.0837 19.1571 40.0066 19.0641 39.9092C18.9711 39.8117 18.8994 39.696 18.8535 39.5693C18.8076 39.4427 18.7885 39.3079 18.7974 39.1734H18.8042ZM49.0108 40.3218C49.0551 40.3223 49.0988 40.3316 49.1396 40.3489C49.179 40.3637 49.2149 40.3867 49.2447 40.4165C49.2745 40.4463 49.2976 40.4822 49.3123 40.5217C49.3301 40.5599 49.3393 40.6015 49.3394 40.6436C49.3393 40.6868 49.3301 40.7295 49.3123 40.769C49.2966 40.8069 49.2736 40.8415 49.2446 40.8706C49.2143 40.9017 49.1778 40.9261 49.1376 40.9424C49.0974 40.9588 49.0542 40.9666 49.0108 40.9654C48.9668 40.966 48.9231 40.9579 48.8821 40.9417C48.8038 40.9083 48.7409 40.8467 48.706 40.769C48.6893 40.7293 48.6812 40.6866 48.6823 40.6436C48.6813 40.6017 48.6894 40.5602 48.706 40.5217C48.7237 40.483 48.7477 40.4475 48.7771 40.4167C48.808 40.3883 48.8435 40.3654 48.8821 40.3489C48.9207 40.3324 48.9621 40.3232 49.0041 40.3218H49.0108ZM49.0108 40.8977C49.0447 40.8982 49.0782 40.8913 49.1091 40.8774C49.1388 40.8654 49.1654 40.8469 49.187 40.8232C49.21 40.7997 49.2283 40.7721 49.2412 40.7419C49.2551 40.711 49.262 40.6775 49.2615 40.6436C49.2617 40.6109 49.2547 40.5786 49.2412 40.5488C49.2283 40.5185 49.21 40.491 49.187 40.4675C49.1654 40.4438 49.1388 40.4253 49.1091 40.4133C49.0775 40.4022 49.0443 40.3964 49.0108 40.3963C48.9774 40.3967 48.9442 40.4025 48.9126 40.4133C48.8824 40.4261 48.8548 40.4445 48.8313 40.4675C48.8094 40.4911 48.7921 40.5187 48.7805 40.5488C48.767 40.5786 48.76 40.6109 48.7602 40.6436C48.7596 40.6775 48.7666 40.711 48.7805 40.7419C48.7921 40.7719 48.8094 40.7995 48.8313 40.8232C48.8548 40.8461 48.8824 40.8645 48.9126 40.8774C48.9415 40.89 48.9726 40.8969 49.0041 40.8977H49.0108ZM49.0312 40.4946C49.0469 40.493 49.0628 40.4946 49.0779 40.4992C49.0931 40.5039 49.1071 40.5115 49.1192 40.5217C49.1293 40.5297 49.1374 40.5401 49.1427 40.5519C49.148 40.5637 49.1504 40.5765 49.1497 40.5894C49.1502 40.6007 49.1484 40.6119 49.1443 40.6224C49.1402 40.6329 49.134 40.6424 49.126 40.6504C49.1065 40.6685 49.0814 40.6792 49.0549 40.6809L49.1531 40.7927H49.0752L48.9871 40.6809H48.9566V40.7927H48.8923V40.4946H49.0312ZM48.9566 40.5522V40.6301H49.0312C49.0444 40.634 49.0586 40.634 49.0718 40.6301C49.0761 40.6263 49.0796 40.6216 49.082 40.6163C49.0844 40.6111 49.0856 40.6054 49.0856 40.5996C49.0856 40.5938 49.0844 40.5881 49.082 40.5829C49.0796 40.5776 49.0761 40.5729 49.0718 40.5691C49.0585 40.5653 49.0445 40.5653 49.0312 40.5691L48.9566 40.5522Z" fill="black"/>
        <path d="M35.3354 12.876H24.6646V32.0528H35.3354V12.876Z" fill="#FF5F00"/>
        <path d="M25.3421 22.4661C25.3417 20.6192 25.7607 18.7964 26.5676 17.1351C27.3744 15.4738 28.5481 14.0175 30 12.876C28.2009 11.4621 26.0404 10.5829 23.7652 10.3389C21.4901 10.0948 19.1922 10.4958 17.1342 11.4959C15.0762 12.496 13.341 14.055 12.1271 15.9946C10.9132 17.9342 10.2694 20.1762 10.2694 22.4644C10.2694 24.7526 10.9132 26.9946 12.1271 28.9342C13.341 30.8738 15.0762 32.4328 17.1342 33.4329C19.1922 34.4331 21.4901 34.834 23.7652 34.59C26.0404 34.3459 28.2009 33.4667 30 32.0528C28.5474 30.9127 27.3732 29.4572 26.5663 27.7963C25.7593 26.1354 25.3407 24.3127 25.3421 22.4661Z" fill="#EB001B"/>
        <path d="M48.5671 30.0237V29.6308H48.7263V29.5495H48.3232V29.6308H48.4824V30.0237H48.5671ZM49.353 30.0237V29.5495H49.2276L49.0854 29.8882L48.9431 29.5495H48.8211V30.0237H48.9058V29.6646L49.0413 29.9729H49.1294L49.2649 29.6646V30.0237H49.353Z" fill="#F79E1B"/>
        <path d="M49.7324 22.4661C49.7323 24.7545 49.0884 26.9966 47.8743 28.9363C46.6601 30.876 44.9247 32.4349 42.8664 33.4349C40.8082 34.4349 38.51 34.8356 36.2348 34.5912C33.9595 34.3468 31.7989 33.4672 30 32.0528C31.452 30.9117 32.6259 29.4557 33.4331 27.7948C34.2402 26.1338 34.6596 24.3112 34.6596 22.4644C34.6596 20.6177 34.2402 18.7951 33.4331 17.1341C32.6259 15.4731 31.452 14.0171 30 12.876C31.7992 11.4615 33.9601 10.5818 36.2356 10.3376C38.5112 10.0933 40.8096 10.4943 42.868 11.4947C44.9264 12.4951 46.6617 14.0545 47.8756 15.9947C49.0895 17.9349 49.733 20.1775 49.7324 22.4661Z" fill="#F79E1B"/>
    </g>
    <defs>
        <clipPath id="clip0_65_51">
            <rect width="60" height="60.1152" fill="white"/>
        </clipPath>
    </defs>
</svg>
