<svg width="60" height="60" viewBox="0 0 60 60" fill="none" xmlns="http://www.w3.org/2000/svg">
    <path d="M17.6206 45.9084V43.8023C17.633 43.6252 17.6075 43.4474 17.5458 43.2809C17.4842 43.1145 17.3879 42.9631 17.2633 42.8368C17.1387 42.7106 16.9887 42.6125 16.8233 42.549C16.6579 42.4854 16.4809 42.458 16.304 42.4685C16.0726 42.4534 15.8414 42.5008 15.6344 42.6057C15.4275 42.7107 15.2524 42.8693 15.1275 43.0652C15.0136 42.8752 14.8507 42.7195 14.656 42.6145C14.4612 42.5094 14.2419 42.459 14.0209 42.4685C13.8284 42.4588 13.6366 42.4997 13.4646 42.5871C13.2927 42.6745 13.1464 42.8054 13.0405 42.9669V42.5527H12.3121V45.9084H13.0474V44.048C13.0315 43.9332 13.0412 43.8163 13.0757 43.7057C13.1103 43.5951 13.1688 43.4935 13.2471 43.4083C13.3255 43.323 13.4217 43.2563 13.5288 43.2127C13.636 43.1692 13.7514 43.15 13.8668 43.1565C14.3501 43.1565 14.5952 43.4724 14.5952 44.041V45.9084H15.3306V44.048C15.3159 43.9334 15.3264 43.817 15.3613 43.7069C15.3963 43.5968 15.4549 43.4958 15.533 43.4108C15.6111 43.3258 15.7068 43.259 15.8134 43.2151C15.9199 43.1712 16.0348 43.1511 16.15 43.1565C16.6472 43.1565 16.8853 43.4724 16.8853 44.041V45.9084H17.6206ZM28.5038 42.5527H27.3133V41.5348H26.5779V42.5527H25.8986V43.2196H26.5779V44.75C26.5779 45.5292 26.8791 45.9926 27.7405 45.9926C28.0623 45.9936 28.3778 45.9036 28.6509 45.7329L28.4408 45.1081C28.2455 45.2249 28.0238 45.2901 27.7965 45.2976C27.4323 45.2976 27.3133 45.0729 27.3133 44.736V43.2196H28.5038V42.5527ZM34.7158 42.4685C34.5382 42.4632 34.3625 42.5061 34.2072 42.5926C34.0519 42.6791 33.9228 42.806 33.8334 42.9599V42.5527H33.112V45.9084H33.8404V44.0269C33.8404 43.4724 34.0785 43.1635 34.5548 43.1635C34.7106 43.1613 34.8652 43.19 35.01 43.2477L35.2341 42.5597C35.0677 42.5001 34.8925 42.4692 34.7158 42.4685ZM25.3243 42.8195C24.9121 42.5738 24.438 42.4519 23.9587 42.4685C23.1113 42.4685 22.565 42.8756 22.565 43.5425C22.565 44.0902 22.9712 44.4271 23.7205 44.5324L24.0637 44.5815C24.4629 44.6376 24.652 44.743 24.652 44.9325C24.652 45.1923 24.3858 45.3397 23.8886 45.3397C23.4887 45.3513 23.0965 45.2276 22.7751 44.9887L22.4319 45.5573C22.8562 45.8543 23.3644 46.0069 23.8816 45.9926C24.8481 45.9926 25.4083 45.5363 25.4083 44.8974C25.4083 44.3077 24.9672 43.9988 24.2388 43.8935L23.8957 43.8444C23.5805 43.8023 23.3284 43.7392 23.3284 43.5145C23.3284 43.2688 23.5664 43.1213 23.9657 43.1213C24.3323 43.1269 24.6914 43.226 25.0092 43.4092L25.3243 42.8195ZM44.8356 42.4685C44.6581 42.4632 44.4824 42.5061 44.327 42.5926C44.1717 42.6791 44.0426 42.806 43.9532 42.9599V42.5527H43.2319V45.9084H43.9602V44.0269C43.9602 43.4724 44.1983 43.1635 44.6745 43.1635C44.8303 43.1613 44.9851 43.19 45.1298 43.2477L45.3539 42.5597C45.1876 42.5001 45.0123 42.4692 44.8356 42.4685ZM35.4511 44.2305C35.4415 44.4669 35.4813 44.7027 35.568 44.9228C35.6547 45.1428 35.7864 45.3423 35.9546 45.5082C36.1228 45.6742 36.3238 45.803 36.5447 45.8865C36.7655 45.9699 37.0014 46.0061 37.2371 45.9926C37.6743 46.0147 38.104 45.8719 38.4416 45.5924L38.0914 45.0027C37.8396 45.1951 37.5326 45.301 37.216 45.3046C36.9431 45.288 36.6867 45.1676 36.4993 44.968C36.3119 44.7684 36.2076 44.5046 36.2076 44.2305C36.2076 43.9564 36.3119 43.6927 36.4993 43.493C36.6867 43.2934 36.9431 43.1731 37.216 43.1565C37.5326 43.16 37.8396 43.2659 38.0914 43.4584L38.4416 42.8686C38.104 42.5892 37.6743 42.4465 37.2371 42.4685C37.0014 42.4551 36.7656 42.4912 36.5447 42.5746C36.3238 42.658 36.1228 42.7869 35.9546 42.9528C35.7864 43.1188 35.6547 43.3182 35.568 43.5382C35.4813 43.7583 35.4415 43.9941 35.4511 44.2305ZM42.2724 44.2305V42.5527H41.5441V42.9599C41.4198 42.7993 41.2589 42.6709 41.0749 42.5854C40.8909 42.4999 40.6892 42.4598 40.4866 42.4685C40.0352 42.4907 39.6097 42.686 39.2982 43.014C38.9866 43.342 38.8128 43.7776 38.8128 44.2306C38.8128 44.6835 38.9866 45.1191 39.2982 45.4471C39.6097 45.7751 40.0352 45.9705 40.4866 45.9926C40.6892 46.0013 40.8909 45.9612 41.0749 45.8757C41.2589 45.7902 41.4198 45.6618 41.5441 45.5012V45.9084H42.2724V44.2305ZM39.5621 44.2305C39.5734 44.0325 39.6423 43.8421 39.7602 43.6828C39.8782 43.5236 40.04 43.4024 40.2258 43.3343C40.4117 43.2661 40.6133 43.254 40.8059 43.2994C40.9986 43.3447 41.1737 43.4456 41.3098 43.5896C41.4459 43.7335 41.537 43.9143 41.5719 44.1095C41.6068 44.3047 41.5839 44.5059 41.506 44.6883C41.4282 44.8706 41.2988 45.0261 41.1338 45.1357C40.9689 45.2452 40.7755 45.3039 40.5776 45.3046C40.439 45.3065 40.3014 45.2795 40.1736 45.2255C40.0458 45.1714 39.9306 45.0914 39.8352 44.9905C39.7398 44.8896 39.6662 44.77 39.6192 44.6392C39.5723 44.5083 39.5528 44.3692 39.5621 44.2305ZM30.773 42.4685C30.3188 42.4925 29.8915 42.6918 29.5807 43.0248C29.27 43.3577 29.0999 43.7983 29.1063 44.2542C29.1126 44.7101 29.2948 45.1458 29.6147 45.4699C29.9346 45.794 30.3673 45.9814 30.822 45.9926C31.3216 46.0102 31.8103 45.8428 32.1946 45.5222L31.8374 44.9817C31.5609 45.2039 31.2184 45.3274 30.864 45.3327C30.6233 45.353 30.3842 45.2786 30.1973 45.1253C30.0104 44.972 29.8903 44.7518 29.8625 44.5113H32.3487C32.3557 44.4201 32.3627 44.3288 32.3627 44.2305C32.3557 43.1845 31.7114 42.4685 30.773 42.4685ZM30.7589 43.1213C30.9789 43.1171 31.1916 43.2004 31.3505 43.353C31.5093 43.5056 31.6013 43.7152 31.6063 43.9357H29.8695C29.8823 43.7104 29.9825 43.4991 30.1487 43.3469C30.3149 43.1947 30.5339 43.1138 30.7589 43.1213ZM49.0307 44.2305V41.2049H48.3023V42.9599C48.178 42.7993 48.0171 42.6709 47.8331 42.5854C47.6491 42.4999 47.4474 42.4598 47.2448 42.4685C46.7935 42.4906 46.368 42.686 46.0564 43.014C45.7448 43.342 45.571 43.7776 45.571 44.2306C45.571 44.6835 45.7448 45.1191 46.0564 45.4471C46.368 45.7752 46.7935 45.9705 47.2448 45.9926C47.4474 46.0013 47.6491 45.9612 47.8331 45.8757C48.0171 45.7902 48.178 45.6618 48.3023 45.5012V45.9084H49.0307V44.2305ZM50.2448 45.4221C50.29 45.4218 50.3348 45.4307 50.3765 45.4483C50.4166 45.465 50.4532 45.4893 50.4842 45.5198C50.515 45.5502 50.5396 45.5863 50.5567 45.626C50.5742 45.6669 50.5833 45.7109 50.5833 45.7554C50.5833 45.7999 50.5742 45.8439 50.5567 45.8848C50.5395 45.9244 50.5149 45.9603 50.4842 45.9906C50.4531 46.0211 50.4166 46.0455 50.3765 46.0625C50.3349 46.0804 50.2901 46.0895 50.2448 46.0891C50.1781 46.0898 50.1128 46.0708 50.0569 46.0344C50.001 45.9981 49.957 45.9461 49.9304 45.8848C49.913 45.8439 49.904 45.7999 49.904 45.7554C49.904 45.7109 49.913 45.6669 49.9304 45.626C49.9475 45.5863 49.972 45.5502 50.0026 45.5198C50.0336 45.4891 50.0703 45.4648 50.1107 45.4483C50.1532 45.4306 50.1988 45.4217 50.2448 45.4221ZM50.2448 46.0156C50.2793 46.0158 50.3135 46.0089 50.3452 45.9951C50.3756 45.9819 50.4032 45.963 50.4267 45.9395C50.475 45.8906 50.5021 45.8245 50.5021 45.7556C50.5021 45.6867 50.475 45.6206 50.4267 45.5716C50.4033 45.5482 50.3756 45.5295 50.3452 45.5165C50.3134 45.503 50.2793 45.4962 50.2448 45.4965C50.2097 45.4962 50.1749 45.503 50.1425 45.5165C50.1115 45.5293 50.0834 45.548 50.0597 45.5716C50.0113 45.6206 49.9842 45.6867 49.9842 45.7556C49.9842 45.8245 50.0113 45.8906 50.0597 45.9395C50.0835 45.9632 50.1116 45.9821 50.1425 45.9951C50.1748 46.0088 50.2096 46.0158 50.2448 46.0156ZM50.2644 45.5994C50.2971 45.5973 50.3296 45.6067 50.3562 45.626C50.3667 45.6348 50.3752 45.6459 50.3807 45.6584C50.3863 45.671 50.3889 45.6846 50.3883 45.6984C50.3887 45.7101 50.3866 45.7219 50.3822 45.7328C50.3778 45.7437 50.3711 45.7535 50.3627 45.7617C50.3424 45.7797 50.3167 45.7905 50.2896 45.7924L50.3908 45.9093H50.3117L50.2179 45.7932H50.1877V45.9093H50.1217V45.5994H50.2644ZM50.1877 45.6575V45.7401H50.2636C50.2782 45.7408 50.2926 45.7372 50.3052 45.7298C50.3103 45.7264 50.3144 45.7217 50.3171 45.7162C50.3198 45.7107 50.321 45.7045 50.3206 45.6984C50.321 45.6924 50.3197 45.6863 50.317 45.6809C50.3143 45.6756 50.3102 45.671 50.3052 45.6677C50.2926 45.6603 50.2781 45.6568 50.2636 45.6575H50.1877ZM46.3204 44.2305C46.3317 44.0325 46.4006 43.8421 46.5185 43.6829C46.6365 43.5236 46.7983 43.4025 46.9841 43.3344C47.1699 43.2662 47.3716 43.2541 47.5642 43.2995C47.7568 43.3449 47.932 43.4457 48.0681 43.5897C48.2041 43.7336 48.2952 43.9144 48.3301 44.1096C48.3649 44.3048 48.342 44.506 48.2642 44.6884C48.1863 44.8707 48.0569 45.0262 47.892 45.1357C47.727 45.2452 47.5337 45.3039 47.3358 45.3046C47.1971 45.3065 47.0596 45.2795 46.9318 45.2255C46.804 45.1714 46.6888 45.0914 46.5934 44.9905C46.498 44.8896 46.4245 44.7699 46.3775 44.6391C46.3305 44.5083 46.3111 44.3692 46.3204 44.2305ZM21.7246 44.2305V42.5527H20.9962V42.9599C20.8719 42.7993 20.711 42.6709 20.5271 42.5854C20.3431 42.4999 20.1413 42.4598 19.9387 42.4685C19.4874 42.4907 19.0619 42.686 18.7503 43.014C18.4387 43.342 18.265 43.7776 18.265 44.2306C18.265 44.6835 18.4387 45.1191 18.7503 45.4471C19.0619 45.7751 19.4874 45.9705 19.9387 45.9926C20.1413 46.0013 20.3431 45.9612 20.5271 45.8757C20.711 45.7902 20.8719 45.6618 20.9962 45.5012V45.9084H21.7246V44.2305ZM19.0143 44.2305C19.0256 44.0325 19.0945 43.8421 19.2125 43.6829C19.3304 43.5236 19.4923 43.4025 19.6781 43.3344C19.8639 43.2662 20.0656 43.2541 20.2582 43.2995C20.4508 43.3449 20.6259 43.4457 20.762 43.5897C20.8981 43.7336 20.9892 43.9144 21.024 44.1096C21.0589 44.3048 21.036 44.506 20.9581 44.6884C20.8803 44.8707 20.7509 45.0262 20.5859 45.1357C20.421 45.2452 20.2276 45.3039 20.0298 45.3046C19.8911 45.3065 19.7535 45.2795 19.6258 45.2255C19.498 45.1714 19.3828 45.0914 19.2874 44.9905C19.192 44.8896 19.1185 44.7699 19.0715 44.6391C19.0245 44.5083 19.005 44.3692 19.0143 44.2305Z" fill="#231F20"/>
    <path d="M36.1173 16.9795H25.0855V36.8515H36.1173V16.9795Z" fill="#FF5F00"/>
    <path d="M25.7839 26.9161C25.7821 25.0023 26.2148 23.1132 27.0491 21.3918C27.8834 19.6703 29.0974 18.1617 30.5993 16.9801C28.7394 15.5147 26.5057 14.6034 24.1535 14.3503C21.8014 14.0972 19.4256 14.5126 17.2978 15.549C15.1701 16.5854 13.3761 18.201 12.121 20.2111C10.8659 22.2212 10.2003 24.5448 10.2003 26.9161C10.2003 29.2875 10.8659 31.611 12.121 33.6211C13.3761 35.6312 15.1701 37.2468 17.2978 38.2832C19.4256 39.3196 21.8014 39.7351 24.1535 39.482C26.5057 39.2289 28.7394 38.3176 30.5993 36.8521C29.0974 35.6706 27.8834 34.1619 27.0491 32.4405C26.2148 30.7191 25.7822 28.8299 25.7839 26.9161Z" fill="#EB001B"/>
    <path d="M50.9999 26.9161C51 29.2875 50.3345 31.611 49.0794 33.6211C47.8244 35.6312 46.0305 37.2468 43.9028 38.2832C41.775 39.3196 39.3993 39.735 37.0472 39.482C34.695 39.2289 32.4614 38.3176 30.6015 36.8521C32.1021 35.6694 33.3152 34.1605 34.1493 32.4393C34.9835 30.7182 35.4169 28.8296 35.4169 26.9161C35.4169 25.0026 34.9835 23.1141 34.1493 21.3929C33.3152 19.6718 32.1021 18.1629 30.6015 16.9801C32.4614 15.5147 34.695 14.6033 37.0472 14.3503C39.3993 14.0972 41.775 14.5126 43.9028 15.5491C46.0305 16.5855 47.8244 18.2011 49.0794 20.2112C50.3345 22.2213 51 24.5448 50.9999 26.9161Z" fill="#F79E1B"/>
    <path d="M49.7973 34.747V34.3401H49.961V34.2573H49.5442V34.3401H49.7079V34.747H49.7973ZM50.6065 34.747V34.2564H50.4787L50.3318 34.5938L50.1848 34.2564H50.057V34.747H50.1472V34.377L50.285 34.696H50.3786L50.5164 34.3762V34.747H50.6065Z" fill="#F79E1B"/>
</svg>
