<svg width="60" height="60" viewBox="0 0 60 60" fill="none" xmlns="http://www.w3.org/2000/svg">
    <path d="M30.8588 27.1151C30.8303 29.3439 32.8632 30.5877 34.3946 31.3271C35.9681 32.0859 36.4966 32.5724 36.4906 33.2509C36.4786 34.2894 35.2354 34.7476 34.0718 34.7655C32.0419 34.7967 30.8618 34.2224 29.9234 33.788L29.1922 37.1787C30.1336 37.6087 31.8768 37.9836 33.6845 38C37.9274 38 40.7036 35.9245 40.7186 32.7063C40.7351 28.6223 35.0177 28.3961 35.0568 26.5706C35.0703 26.0171 35.6033 25.4264 36.7714 25.2762C37.3494 25.2003 38.9454 25.1423 40.7546 25.968L41.4648 22.6874C40.4919 22.3362 39.2412 22 37.6842 22C33.6905 22 30.8813 24.1038 30.8588 27.1151ZM48.2887 22.2827C47.514 22.2827 46.8608 22.7305 46.5696 23.4179L40.5084 37.759H44.7484L45.5922 35.4484H50.7735L51.263 37.759H55L51.7389 22.2827H48.2887ZM48.8817 26.4635L50.1054 32.2749H46.7542L48.8817 26.4635ZM25.718 22.2827L22.3758 37.759H26.4161L29.7568 22.2827H25.718ZM19.7409 22.2827L15.5354 32.8164L13.8343 23.8598C13.6346 22.86 12.8464 22.2827 11.9711 22.2827H5.09609L5 22.732C6.41133 23.0355 8.01483 23.525 8.98625 24.0487C9.58081 24.3686 9.75047 24.6483 9.94565 25.4086L13.1677 37.759H17.4377L23.9838 22.2827H19.7409Z" fill="url(#paint0_linear_1_86)"/>
    <defs>
        <linearGradient id="paint0_linear_1_86" x1="27.9871" y1="38.321" x2="28.446" y2="21.8885" gradientUnits="userSpaceOnUse">
            <stop stop-color="#222357"/>
            <stop offset="1" stop-color="#254AA5"/>
        </linearGradient>
    </defs>
</svg>
