<svg width="60" height="60" viewBox="0 0 60 60" fill="none" xmlns="http://www.w3.org/2000/svg">
    <g clip-path="url(#clip0_61_69)">
        <path d="M50 10H10V50H50V10Z" fill="white"/>
        <path d="M50 29.9963H10V50H50V29.9963Z" fill="#10357E"/>
        <path d="M25.8138 15.5939L22.0525 24.5723H19.5991L17.7443 17.4044C17.6335 16.961 17.5374 16.7984 17.1901 16.6137C16.6285 16.3107 15.7048 16.0225 14.8993 15.8526L14.9584 15.5939H18.9119C19.4144 15.5939 19.8651 15.9265 19.9834 16.5103L20.9662 21.7125L23.3826 15.6013H25.8212M35.4425 21.6534C35.4498 19.2814 32.1689 19.1483 32.191 18.0916C32.191 17.7665 32.5088 17.4266 33.1738 17.3379C33.5064 17.2935 34.4227 17.264 35.4646 17.7369L35.871 15.8304C35.3094 15.6309 34.5926 15.4314 33.6985 15.4314C31.4003 15.4314 29.782 16.6507 29.7746 18.402C29.7598 19.6952 30.9274 20.4194 31.8068 20.848C32.7157 21.2913 33.0187 21.5721 33.0113 21.9638C33.0113 22.5697 32.2871 22.8358 31.622 22.8432C30.4545 22.8579 29.7746 22.5254 29.2352 22.2742L28.814 24.2398C29.3608 24.491 30.3584 24.7053 31.4003 24.7201C33.8389 24.7201 35.4425 23.5156 35.4498 21.646M41.5167 24.5797H43.6671L41.7901 15.6013H39.8097C39.3663 15.6013 38.9895 15.86 38.8195 16.259L35.3316 24.5797H37.7702L38.2579 23.2348H41.2359L41.5167 24.5797ZM38.923 21.3948L40.1496 18.0251L40.8517 21.3948H38.923ZM29.1465 15.5939L27.2252 24.5723H24.9049L26.8262 15.5939H29.1465Z" fill="#10357E"/>
        <path d="M19.3183 41.0733C19.5769 41.2285 19.9908 41.3615 20.412 41.3615C20.9366 41.3615 21.2322 41.1103 21.2322 40.7408C21.2322 40.4009 21.0031 40.194 20.4341 39.9871C19.6804 39.7284 19.2001 39.322 19.2001 38.6717C19.2001 37.9254 19.8208 37.3637 20.811 37.3637C21.2987 37.3637 21.6608 37.4672 21.8973 37.5854L21.7052 38.2579C21.5352 38.1692 21.2174 38.0436 20.7962 38.0436C20.2716 38.0436 20.0499 38.317 20.0499 38.5904C20.0499 38.9377 20.3085 39.1003 20.9145 39.3294C21.7052 39.6324 22.082 40.0314 22.082 40.6743C22.082 41.4059 21.5278 42.034 20.3676 42.034C19.8799 42.034 19.3848 41.901 19.1336 41.7532L19.3257 41.0659" fill="white"/>
        <path d="M25.2965 39.9649H23.5821V41.295H25.496V41.9749H22.7545V37.445H25.3926V38.1175H23.5821V39.2924H25.2965V39.9649Z" fill="white"/>
        <path d="M29.4051 41.8419C29.213 41.9379 28.777 42.0414 28.2302 42.0414C26.7892 42.0414 25.9172 41.1399 25.9172 39.758C25.9172 38.2653 26.9592 37.3712 28.3484 37.3712C28.8953 37.3712 29.2795 37.482 29.4421 37.5633L29.2647 38.221C29.0504 38.1249 28.7475 38.0436 28.378 38.0436C27.4543 38.0436 26.7892 38.62 26.7892 39.7137C26.7892 40.7113 27.3656 41.3394 28.3706 41.3394C28.7031 41.3394 29.0504 41.2729 29.2721 41.1768L29.4051 41.8271" fill="white"/>
        <path d="M30.8683 37.4377V40.0831C30.8683 40.9699 31.2378 41.3837 31.7994 41.3837C32.3979 41.3837 32.7526 40.9773 32.7526 40.0831V37.4377H33.5803V40.0314C33.5803 41.428 32.8635 42.0488 31.7698 42.0488C30.6761 42.0488 30.0406 41.465 30.0406 40.0388V37.4377H30.8683Z" fill="white"/>
        <path d="M34.4596 37.5115C34.7774 37.4524 35.2355 37.4081 35.7085 37.4081C36.3588 37.4081 36.8021 37.5189 37.1051 37.7702C37.3564 37.9771 37.4968 38.2948 37.4968 38.6865C37.4968 39.2703 37.0977 39.6693 36.6691 39.8171V39.8393C37.0017 39.9575 37.1938 40.2753 37.3046 40.7112C37.4524 41.2802 37.5707 41.8049 37.6593 41.9749H36.8095C36.743 41.8419 36.6248 41.4724 36.5066 40.9034C36.3735 40.3122 36.1666 40.1201 35.6937 40.1053H35.2799V41.9675H34.4596V37.4968M35.2799 39.492H35.7676C36.3292 39.492 36.6691 39.1964 36.6691 38.7456C36.6691 38.2505 36.3292 38.0214 35.7898 38.0214C35.5311 38.0214 35.3612 38.0436 35.2799 38.0584V39.492Z" fill="white"/>
        <path d="M40.763 39.9649H39.0486V41.295H40.9625V41.9749H38.2209V37.445H40.859V38.1175H39.0486V39.2924H40.763V39.9649Z" fill="white"/>
    </g>
    <defs>
        <clipPath id="clip0_61_69">
            <rect width="40" height="40" fill="white" transform="translate(10 10)"/>
        </clipPath>
    </defs>
</svg>
