<svg xmlns="http://www.w3.org/2000/svg" id="Layer_1" class="SvgIcon_root__AnyvP Footer_azalmiles__d6eXc SvgIcon_size_20__yOxOn" data-name="Layer 1" viewBox="0 0 1754 1241"><defs><style>.cls-1{fill:#b3c3d9}</style></defs><path d="M700.51 598.51c197.25-95.3 384.04-205.75 563.75-331.08-1.72 8.16-3.07 14.88-4.56 21.57-2.64 11.82-5.42 23.61-8.01 35.44-.65 2.95-2.11 4.92-4.68 6.53-33.95 21.3-67.95 42.53-102.46 62.92-27.07 15.99-54.36 31.59-81.85 46.85-39.31 21.82-79.2 42.5-119.66 62.07-51.97 25.14-104.9 48.09-158.98 68.33-25.86 9.68-52.02 18.46-78.27 26.97-1.24.4-2.43 1.08-5.28.4Zm-133.44 99.58c18.79-1.97 37.59-3.93 56.38-5.9 16.49-1.73 32.99-3.32 49.46-5.24 17.78-2.07 35.52-4.44 53.27-6.71 18.74-2.4 37.5-4.66 56.21-7.29 19.2-2.7 38.33-5.85 57.51-8.64 22.96-3.34 45.86-7.11 68.7-11.17 24.64-4.39 49.32-8.6 73.91-13.24 45.95-8.67 91.7-18.35 137.26-28.88 21.99-5.08 43.88-10.59 65.82-15.9 5.75-1.39 5.7-1.4 4.46 4.18-2.44 11.01-4.92 22.01-7.16 33.06-.75 3.68-2.37 5.72-6.21 6.55-37.92 8.19-75.86 16.26-114.03 23.25-26.58 4.87-53.21 9.38-79.9 13.52-20.79 3.22-41.73 5.5-62.58 8.39-23 3.19-46.11 5.34-69.19 7.71-14.35 1.47-28.79 2.09-43.18 3.25-16.72 1.35-33.46 2.17-50.2 3.08-19.74 1.08-39.5 1.31-59.24 2.04-24.13.89-48.26 1.2-72.38.64-19.63-.46-39.27-.53-58.89-.95 0-.58-.01-1.16-.02-1.74Zm59.94-43.91c12.47-3.26 24.95-6.51 37.42-9.77 41.3-10.79 82.36-22.45 123.27-34.65 56.73-16.91 112.97-35.33 168.94-54.56a4540.343 4540.343 0 0 0 181.64-66.72c26.47-10.36 52.89-20.87 79.34-31.28 1.17-.46 2.44-1.74 3.67-.69 1.27 1.09.03 2.49-.23 3.71-2.71 12.65-5.5 25.29-8.15 37.95-.46 2.22-2.02 2.93-3.73 3.57-24.71 9.37-49.39 18.84-74.17 28.05-39.9 14.85-80.25 28.42-120.78 41.46-55.68 17.91-111.96 33.75-168.86 47.3-41.64 9.92-83.59 18.42-125.86 25.13-23.73 3.77-47.53 7.31-71.5 9.38-6.92.6-13.82 1.51-20.73 2.28-.1-.39-.19-.79-.29-1.18Zm449.92 179.73c-6.07 11.27-10.56 23.26-15.77 34.92-10.51 23.53-20.74 47.19-31.1 70.78-4.15 9.44-8.45 18.81-12.45 28.31-1.02 2.42-2.35 3.09-4.84 3.14-12.24.23-11.99.19-16.98-11.31-10.33-23.8-20.95-47.46-31.43-71.2-7.79-17.65-15.53-35.31-23.32-52.96-.26-.58-.69-1.09-1.05-1.63-.12-.44.21-1.17-.65-1.1-.09 0-.12.75-.18 1.15-.04 44.31-.09 88.62-.06 132.93 0 2.93-.76 4.26-3.93 4.1-4.49-.21-9-.18-13.49 0-2.85.11-4-.99-3.69-3.77.07-.66 0-1.33 0-2 0-56.82.05-113.64-.09-170.47-.01-4.45.96-6.41 5.73-5.86 3.45.4 7.04.45 10.48 0 5.35-.71 7.96 1.55 10.05 6.36 20.34 46.65 40.89 93.2 61.39 139.78.8 1.81 1.75 3.56 3.16 6.42 3.3-7.36 6.27-13.88 9.14-20.44 11.29-25.74 22.53-51.49 33.81-77.23 7.34-16.75 14.8-33.46 22.03-50.26 1.46-3.38 3.34-4.88 7.12-4.61 4.48.33 9.01.32 13.49 0 3.9-.28 4.7 1.28 4.69 4.88-.12 31.83-.07 63.65-.07 95.48 0 25.49-.09 50.99.09 76.48.03 4.18-1.17 5.68-5.33 5.26-3.13-.31-6.33-.06-9.49-.06-6.61 0-6.95-.16-7.05-7-.16-10.33 0-20.66-.05-30.99-.21-32.97 1.45-65.93.69-98.91.02-.49.41-1.12-.4-1.29-.07-.01-.29.71-.45 1.09ZM667.9 789.03c4.66 0 9.35.29 13.98-.09 3.93-.32 5.66 1.38 6.87 4.8 5.5 15.51 11.11 30.97 16.74 46.43 15.3 42 30.6 84 46.02 125.95 1.45 3.95.86 5.28-3.5 4.95-4.14-.32-8.34-.27-12.48 0-3.27.21-4.61-1.15-5.66-4.14-4.63-13.17-9.64-26.21-14.28-39.37-1.02-2.88-2.5-3.78-5.44-3.77-28.32.09-56.64.1-84.95-.02-2.85-.01-4.11.99-5.02 3.54-4.64 12.99-9.55 25.88-14.09 38.9-1.23 3.54-2.91 5.17-6.79 4.87-4.14-.32-8.33-.2-12.49-.03-3.25.13-4.14-.77-2.91-4.03 4.38-11.66 8.53-23.42 12.82-35.12 10.74-29.34 21.51-58.66 32.26-87.99 6.29-17.16 12.65-34.3 18.77-51.52 1-2.81 2.52-3.46 5.16-3.39 4.99.13 9.99.04 14.99.04Zm-.19 115.98h33.95c5.97 0 5.99-.14 3.93-5.77-10.49-28.7-20.96-57.4-31.37-86.13-1.07-2.96-1.88-5.27-5.93-5.36-4.2-.09-5.28 2.1-6.46 5.33-10.55 29.03-21.16 58.03-31.91 86.98-1.41 3.8-.85 5.06 3.34 4.99 11.48-.17 22.97-.06 34.45-.06Zm-267.32 66c-10.23 0-10.35.05-13.94-9.4-4.3-11.34-8.46-22.74-12.47-34.19-1.01-2.88-2.55-3.65-5.46-3.64-27.98.1-55.97.11-83.95 0-3.27-.01-5.07.76-6.23 4.12-4.36 12.56-9.16 24.96-13.59 37.49-1.43 4.05-3.26 6.48-8.13 5.73-3.42-.53-7-.31-10.47-.05-4 .3-5.29-.53-3.67-4.82 6.9-18.35 13.5-36.82 20.23-55.23 10.79-29.49 21.6-58.98 32.4-88.47 3.71-10.14 7.45-20.28 11.1-30.44.78-2.17 1.96-3.14 4.38-3.11 10.33.11 20.65.14 30.98-.01 2.89-.04 4 1.2 4.92 3.75 7.01 19.37 14.22 38.67 21.27 58.04 13.98 38.41 27.81 76.87 41.92 115.24 1.5 4.07 1.22 5.49-3.3 5.05-1.98-.2-3.99-.03-5.99-.03Zm-74.45-65.99c11.32 0 22.65.01 33.97 0 5.76 0 6-.28 4.11-5.49-10.65-29.36-21.36-58.7-31.95-88.08-.94-2.61-2.31-3.38-5.04-3.64-4.4-.43-5.69 2.03-6.92 5.42-10.61 29.2-21.25 58.38-32.04 87.51-1.26 3.4-.78 4.39 2.89 4.35 11.66-.14 23.31-.05 34.97-.05Zm207.24-97.08c-30.82 0-61.64-.1-92.45.07-4.26.02-5.76-.88-5.68-5.46.26-13.52.05-13.52 13.51-13.52 34.82 0 69.63.09 104.45-.11 4.67-.03 6.06 1.02 6.3 5.93.38 7.74-1.87 13.93-6.22 20.27-30.22 44-60.13 88.21-90.13 132.35-.56.83-1.04 1.71-1.65 2.5-1.48 1.89-1.37 2.99 1.34 2.97 1.17-.01 2.33 0 3.5 0h92.95c5.44 0 5.56.21 3.69 5.19q-4.82 12.86-18.66 12.86c-34.65 0-69.3-.1-103.95.12-5.01.03-5.49-2.12-5.71-6.18-.46-8.47 3.08-15.08 7.72-21.85 27.75-40.45 55.18-81.12 82.71-121.72 2.8-4.13 5.59-8.26 8.38-12.39.1-.11.31-.26.29-.33-.09-.25-.25-.47-.38-.71Zm802.73 105.07c-15 0-30 .16-44.99-.1-4.4-.08-5.4 1.46-5.01 5.48 1.43 14.67 13.23 29.24 27.43 33.92 15.97 5.27 30.36 1.75 43.81-7.44 3.51-2.4 5.94-5.84 7.96-9.47 1.36-2.44 2.79-2.86 5.24-1.79 3.65 1.6 7.38 3.06 11.14 4.36 2.62.91 2.28 2.35 1.23 4.2-10.83 18.97-27.29 29.03-48.92 30.72-15.53 1.21-30.18-1.37-43.09-10.8-13.98-10.22-22.35-24.09-25.39-40.92-3.7-20.52-1.59-40.22 11.32-57.49 11.06-14.8 25.72-23.1 44.52-23.88 15.2-.63 29.58 1.39 42.09 10.83 12.93 9.75 21.13 22.26 22.85 38.74.68 6.49.83 12.83.15 19.34-.43 4.07-2.1 4.38-5.34 4.36-15-.12-29.99-.05-44.99-.05Zm-10.75-17.06h29.42c11.49 0 12.63-1.62 8.91-12.73-.21-.63-.53-1.22-.79-1.83-6.7-15.79-19.52-22.56-35.77-23.29-19.85-.9-37.45 14.08-40.79 33.82-.53 3.11.49 4.12 3.62 4.08 11.8-.13 23.6-.05 35.41-.05Zm137.49-56c14.05-.84 26.28 2.32 36.54 11.58 4.28 3.86 7.18 8.58 9.53 13.81 1.3 2.89.28 3.86-2.27 4.55-2.08.57-4.11 1.35-6.16 2.02-2.68.87-5.51 2.69-8.03 2.34-2.86-.4-2.84-4.42-4.46-6.63a17.767 17.767 0 0 0-8.27-6.23c-10.94-4.04-22.05-4.88-33.02-.11-5.79 2.51-9.13 7.08-9.61 13.48-.48 6.47 2.14 11.25 7.97 14.26 7.19 3.72 15.15 4.87 22.82 6.97 11.25 3.07 22.22 6.55 32.11 13.17 16.15 10.82 16.52 33.52 7.18 46.06-7.7 10.35-18.57 15.48-31.01 17.05-14.16 1.79-28.27 1.65-41.3-5.5-10.57-5.8-17.56-14.5-20.97-26.13-.63-2.16-.69-3.3 1.8-4.02 4.31-1.24 8.53-2.79 12.77-4.26 2.58-.9 3.8-.07 4.81 2.55 5.74 15.03 21.02 22.8 37 19.2 6.02-1.36 12.02-2.43 16.63-7.17 7.35-7.56 6.49-17.87-2.09-23.97-9.09-6.46-19.86-8.2-30.26-10.93-7.74-2.03-15.29-4.4-22.47-8.04-19.09-9.68-21.61-31.26-10.55-46.69 8.06-11.25 19.79-16.3 33.36-17.32 2.82-.21 5.66-.03 7.94-.03Zm-678.7 39.96c0-28.49.11-56.99-.11-85.48-.03-4.52 1.3-5.88 5.64-5.48 3.8.36 7.67.23 11.49.03 3.05-.16 4.08.93 4.03 4-.16 9-.06 18-.06 26.99 0 42.49.06 84.98-.1 127.47-.02 4.33 1 5.66 5.5 5.61 24.66-.23 49.32-.02 73.99-.2 4.18-.03 5.82.74 5.72 5.4-.28 12.74-.05 12.74-12.8 12.74-29 0-57.99-.11-86.98.11-4.86.04-6.52-.92-6.46-6.22.3-28.32.14-56.65.14-84.98Zm425.01.1c0-28.63.07-57.26-.08-85.89-.02-3.83.88-5.47 4.98-5.1 3.8.35 7.65.16 11.48.05 2.47-.08 3.84.68 3.57 3.39-.08.82 0 1.66 0 2.5 0 56.76-.05 113.53.09 170.29.01 4.49-1.03 6.45-5.75 5.81-4.55-.62-10.43 1.99-13.42-1.1-2.74-2.84-.81-8.58-.83-13.03-.08-25.63-.04-51.27-.04-76.9Zm-63.93 26c0-19.8.11-39.6-.09-59.4-.04-4.2.77-6.23 5.42-5.64 4.58.58 10.47-1.88 13.51.95 3.1 2.9.98 8.83.99 13.42.1 36.61 0 73.22.14 109.82.02 4.34-.79 6.58-5.66 5.89-4.55-.65-10.41 1.98-13.42-1.11-2.77-2.84-.82-8.57-.85-13.02-.1-16.97-.04-33.95-.04-50.92Zm10.24-118.04c8.17.05 13.72 5.68 13.65 13.85-.06 7.67-6.33 14-13.88 14.02-7.53.03-14.04-6.47-14-14 .04-8.41 5.71-13.94 14.23-13.88Z" class="cls-1"/><path d="M567.07 698.09c0 .58.01 1.16.02 1.74h-10.37c3.57-2.37 7.02-1.72 10.36-1.74Zm372.09 135.93c.06-.4.09-1.14.18-1.15.86-.07.53.66.65 1.1-.28.01-.55.03-.83.05Zm137.77-.11c.15-.38.38-1.1.45-1.09.81.18.42.8.4 1.29-.29-.06-.57-.12-.84-.2Zm-543.75-25.97c.13.23.3.46.38.71.02.07-.19.21-.29.33-.03-.34-.06-.69-.1-1.03Z" class="cls-1"/></svg>