<svg xmlns="http://www.w3.org/2000/svg" xmlns:xlink="http://www.w3.org/1999/xlink" width="10px" height="10px" viewBox="0 0 10 10" version="1.1" transform="matrix(-1, 0, 0, 1, 0, 0)">
<g id="surface1">
<path style=" stroke:none;fill-rule:evenodd;fill:#bebfc0;fill-opacity:1;" d="M 7.257812 4.992188 L 9.523438 2.726562 C 10.148438 2.101562 10.148438 1.085938 9.523438 0.464844 C 8.898438 -0.164062 7.882812 -0.164062 7.257812 0.464844 L 4.992188 2.726562 L 2.726562 0.464844 C 2.101562 -0.164062 1.085938 -0.164062 0.460938 0.464844 C -0.164062 1.085938 -0.164062 2.101562 0.460938 2.726562 L 2.726562 4.992188 L 0.460938 7.257812 C -0.164062 7.882812 -0.164062 8.898438 0.460938 9.523438 C 1.085938 10.152344 2.101562 10.152344 2.726562 9.523438 L 4.992188 7.257812 L 7.257812 9.523438 C 7.882812 10.152344 8.898438 10.152344 9.523438 9.523438 C 10.148438 8.898438 10.148438 7.882812 9.523438 7.257812 L 7.257812 4.992188 "/>
</g>
</svg>