<svg xmlns="http://www.w3.org/2000/svg" fill="black" viewBox="1.8 1.66 16.41 16.26" class="_root_1GwWf_rETN6 _size_16_1GwWf_rETN6"><path d="M9.988 1.656a.834.834 0 0 0-.654.333L6.703 4.62A.833.833 0 1 0 7.88 5.8l1.286-1.286v6.299L3.86 14.45l.31-1.547a.834.834 0 1 0-1.635-.326l-.723 3.62a.834.834 0 0 0 .653.981l3.62.723a.832.832 0 0 0 .869-1.282.834.834 0 0 0-.541-.352l-1.747-.349L9.99 12.27l5.34 3.649-1.742.348a.835.835 0 1 0 .327 1.634l3.62-.723a.833.833 0 0 0 .654-.98l-.724-3.621a.834.834 0 1 0-1.634.326l.31 1.552-5.306-3.627V4.513l1.285 1.286a.833.833 0 1 0 1.179-1.179l-2.634-2.634a.834.834 0 0 0-.676-.33z" fill="currentColor"></path></svg>