<svg xmlns="http://www.w3.org/2000/svg" width="190" height="36" fill="none" class="SvgIcon_root__AnyvP Footer_arbmvbruk__dfvTA SvgIcon_size_20__yOxOn"><g fill="#FEFEFE" clip-path="url(#a)" opacity=".7"><path d="M44.31 7.816h-3.097l-.826 2.179h-1.194l3.305-8.432h.596l3.259 8.432h-1.216l-.827-2.18Zm-2.73-1.09h2.363l-1.17-3.173-1.193 3.173Zm10.165 2.345v.947h-4.91v-.686l3.396-4.477h-3.19v-.947h4.59v.64L48.257 9.07h3.488Zm.826-2.013c0-.119 0-.237.023-.332 0-.094.023-.165.023-.237h4.727a3.17 3.17 0 0 0-.206-.663 1.556 1.556 0 0 0-.39-.544 1.637 1.637 0 0 0-.62-.38 2.413 2.413 0 0 0-.872-.141c-.344 0-.711.07-1.101.189-.39.118-.712.284-.964.497l-.459-.829c.275-.213.62-.426 1.078-.592.46-.165.941-.26 1.47-.26.55 0 1.032.095 1.445.284.413.19.734.426.986.734.253.308.437.64.551 1.042.115.38.184.782.184 1.185 0 .45-.07.876-.207 1.255a3.19 3.19 0 0 1-.596 1.018 2.74 2.74 0 0 1-.941.663c-.367.166-.78.237-1.24.237-.412 0-.803-.07-1.147-.213a2.658 2.658 0 0 1-.895-.616 2.739 2.739 0 0 1-.596-.97 3.246 3.246 0 0 1-.253-1.327Zm2.869 2.108c.252 0 .482-.048.688-.142.207-.095.39-.213.55-.356.162-.142.3-.331.414-.544.115-.214.184-.45.23-.687h-3.65c.047.545.23.97.552 1.279.344.308.734.45 1.216.45Zm4.245-5.282h1.01v.9c.183-.355.413-.64.688-.805.275-.166.62-.26 1.01-.26.114 0 .23 0 .344.023.115.024.23.024.367.071l-.092 1.066a1.877 1.877 0 0 0-.62-.095c-.229 0-.435.048-.619.119-.207.07-.367.19-.528.355-.16.166-.275.379-.344.616-.092.26-.138.544-.138.9v3.244h-1.055c-.023-.023-.023-6.134-.023-6.134Zm7.458-.142c.413 0 .803.071 1.17.26.367.166.665.403.94.687.276.285.46.64.62 1.019.138.402.23.805.23 1.255 0 .45-.07.876-.23 1.255a2.87 2.87 0 0 1-.62 1.019 2.8 2.8 0 0 1-.94.687c-.367.165-.757.26-1.17.26-.436 0-.826-.095-1.17-.284a2.763 2.763 0 0 1-.896-.758v.9h-1.055V1.374h1.055v3.458a2.65 2.65 0 0 1 .895-.806c.322-.19.712-.284 1.17-.284Zm-.138 5.376c.321 0 .597-.047.826-.165.252-.119.459-.26.643-.474.183-.19.298-.426.413-.687a2.55 2.55 0 0 0 .137-.853 2.51 2.51 0 0 0-.137-.829 1.88 1.88 0 0 0-.413-.686 2.184 2.184 0 0 0-.643-.474 1.913 1.913 0 0 0-.826-.166c-.298 0-.597.048-.826.166-.253.118-.46.26-.643.474-.183.19-.298.426-.39.686a2.51 2.51 0 0 0-.137.83c0 .307.046.592.137.852.092.26.23.497.39.687.184.19.39.355.643.474.252.118.528.165.826.165Zm10.074-5.234v6.11h-1.01v-.876c-.252.332-.574.569-.918.758-.344.166-.734.26-1.17.26-.436 0-.826-.07-1.193-.26a3.048 3.048 0 0 1-.941-.687 2.773 2.773 0 0 1-.62-1.042 3.937 3.937 0 0 1-.23-1.279c0-.45.07-.876.23-1.279.16-.402.344-.71.62-.994.252-.284.573-.498.94-.663a2.834 2.834 0 0 1 1.194-.237c.436 0 .826.094 1.17.26.344.19.666.45.918.758v-.9c0 .071 1.01.071 1.01.071Zm-2.983 5.258c.32 0 .596-.047.849-.19.252-.142.459-.284.642-.473.184-.19.321-.426.413-.71.092-.261.138-.545.138-.853A2.76 2.76 0 0 0 76 6.063a1.878 1.878 0 0 0-.413-.687 2.185 2.185 0 0 0-.642-.473c-.253-.119-.528-.166-.85-.166-.32 0-.596.047-.826.166a2.185 2.185 0 0 0-.642.473c-.184.19-.321.427-.413.71-.092.261-.138.546-.138.853 0 .308.046.593.138.853.092.26.23.497.413.71.184.19.39.356.642.474.23.119.505.166.826.166Zm9.798-5.258-2.478 6.798c-.253.71-.551 1.184-.895 1.492a1.704 1.704 0 0 1-1.17.426c-.184 0-.368-.024-.528-.071a1.69 1.69 0 0 1-.413-.166l.137-.947c.115.047.207.095.344.118.138.024.253.048.368.048.229 0 .459-.072.642-.237.184-.166.367-.45.528-.83l.23-.544-2.57-6.11h1.238l1.836 4.594 1.584-4.595 1.147.024Zm3.717 6.253A3.16 3.16 0 0 1 86.35 9.9a2.933 2.933 0 0 1-.987-.663 3.047 3.047 0 0 1-.642-1.019 3.412 3.412 0 0 1-.23-1.279c0-.45.07-.9.23-1.279.16-.402.367-.734.665-1.018.299-.284.62-.497 1.01-.663.39-.166.826-.237 1.285-.237.275 0 .574.047.85.119.275.07.527.189.756.331.23.142.436.308.643.497.183.19.344.427.459.664l-.872.52a2.165 2.165 0 0 0-.757-.828 1.842 1.842 0 0 0-1.056-.308 2.09 2.09 0 0 0-.849.166c-.252.118-.482.26-.665.473-.184.19-.345.427-.436.71-.115.261-.161.57-.161.877 0 .308.046.592.16.876A2.185 2.185 0 0 0 86.831 9c.253.12.528.167.826.167.367 0 .734-.095 1.079-.308.344-.213.596-.474.757-.782l.895.521c-.115.237-.276.45-.46.64-.183.19-.412.355-.642.497-.23.142-.481.237-.757.308-.275.071-.62.095-.918.095Zm9.592-6.253v6.11h-1.01v-.876c-.252.332-.573.569-.918.758-.344.166-.734.26-1.17.26-.436 0-.826-.07-1.17-.26a3.048 3.048 0 0 1-.94-.687 2.772 2.772 0 0 1-.62-1.042 3.937 3.937 0 0 1-.23-1.279c0-.45.069-.876.23-1.279.137-.379.344-.71.62-.994.274-.284.573-.498.94-.663a2.802 2.802 0 0 1 1.17-.237c.436 0 .826.094 1.17.26.345.19.666.45.918.758v-.9c-.023.071 1.01.071 1.01.071Zm-3.006 5.258c.321 0 .597-.047.849-.19.252-.118.459-.284.642-.473.184-.19.322-.426.414-.71.091-.261.137-.545.137-.853a2.76 2.76 0 0 0-.137-.853 1.879 1.879 0 0 0-.413-.687 2.184 2.184 0 0 0-.643-.473c-.252-.119-.528-.166-.849-.166-.321 0-.597.047-.826.166a2.185 2.185 0 0 0-.643.473c-.183.19-.32.427-.413.71-.091.261-.137.546-.137.853 0 .308.046.593.137.853.092.26.23.497.413.71.184.19.39.356.643.474.252.119.528.166.826.166Zm4.658-5.258h1.033v.877c.183-.332.436-.593.757-.758.321-.166.711-.26 1.124-.26.322 0 .597.046.895.141.276.095.528.26.758.474.206.213.39.474.527.805.138.332.184.71.184 1.137v3.695h-1.056V6.608c0-.616-.137-1.09-.436-1.397-.298-.308-.642-.474-1.078-.474-.252 0-.459.047-.666.142a1.367 1.367 0 0 0-.504.379 2.083 2.083 0 0 0-.345.592c-.091.237-.114.474-.114.758v3.387h-1.056l-.023-6.11Zm12.001 2.7h-1.124v3.434h-1.101V1.563h2.776c.436 0 .803.071 1.125.213.321.142.596.332.803.569.206.237.367.497.482.805.114.308.16.616.16.924 0 .26-.046.52-.115.781-.068.26-.206.498-.344.71-.16.214-.367.403-.596.57-.23.165-.505.283-.826.354l2.271 3.506h-1.354l-2.157-3.41Zm-1.124-1.09h1.469c.298 0 .55-.047.757-.118.206-.094.39-.19.505-.331.137-.142.229-.284.275-.45.069-.166.092-.356.092-.521 0-.19-.023-.38-.092-.545-.069-.166-.138-.332-.252-.45a1.331 1.331 0 0 0-.459-.308 1.706 1.706 0 0 0-.62-.118h-1.675v2.842Zm11.267 1.327v.332c0 .094-.023.165-.023.236h-4.727c.046.237.115.45.206.664.092.213.23.402.391.544.16.166.367.285.619.38.253.094.528.141.872.141s.711-.07 1.102-.19a3.12 3.12 0 0 0 .963-.496l.459.829a3.872 3.872 0 0 1-1.078.592c-.459.165-.941.26-1.469.26-.551 0-1.032-.095-1.446-.284-.413-.19-.734-.426-.986-.734a2.909 2.909 0 0 1-.551-1.019 4.104 4.104 0 0 1-.184-1.184c0-.45.069-.876.207-1.279.138-.403.344-.734.597-1.018.252-.284.573-.498.94-.663a2.948 2.948 0 0 1 1.217-.237c.413 0 .803.07 1.147.213.344.142.642.355.918.616.252.26.459.592.596.97.161.427.23.853.23 1.327Zm-2.845-2.108c-.253 0-.482.048-.689.142-.206.095-.39.213-.551.355a1.99 1.99 0 0 0-.413.545 2.44 2.44 0 0 0-.229.687h3.648c-.045-.545-.229-.971-.55-1.279a1.77 1.77 0 0 0-1.216-.45Zm5.759 5.424c-.206 0-.413-.024-.619-.071a1.86 1.86 0 0 1-.597-.237 4.322 4.322 0 0 1-.551-.426 2.312 2.312 0 0 1-.436-.593l.758-.592c.183.332.413.592.688.735.275.142.528.236.78.236.344 0 .597-.094.78-.26a.76.76 0 0 0 .276-.592.695.695 0 0 0-.161-.474c-.115-.118-.229-.237-.39-.308-.092-.047-.207-.118-.321-.166-.138-.047-.276-.118-.413-.165-.138-.071-.276-.119-.413-.19-.138-.07-.23-.118-.345-.166a1.592 1.592 0 0 1-.688-.663 1.769 1.769 0 0 1-.069-1.516c.092-.213.207-.378.39-.544a1.97 1.97 0 0 1 .62-.356 2.12 2.12 0 0 1 .803-.142c.367 0 .711.071 1.056.237.344.166.619.403.826.734l-.666.664c-.16-.261-.367-.45-.596-.545a1.452 1.452 0 0 0-.666-.166c-.275 0-.482.071-.642.213a.746.746 0 0 0-.207.521c0 .119.046.26.115.38.069.118.206.236.39.33.206.096.436.214.688.309.276.118.505.237.758.355.321.166.55.379.734.616.183.237.275.544.275.923 0 .26-.046.498-.16.735a2.191 2.191 0 0 1-.436.592 1.987 1.987 0 0 1-.689.402c-.252.142-.551.19-.872.19Zm6.54-6.395c.436 0 .826.095 1.193.26.367.166.666.403.941.687.275.285.482.64.62 1.019.137.379.229.805.229 1.231 0 .45-.069.877-.229 1.256-.161.379-.345.734-.62 1.018a3.046 3.046 0 0 1-.941.687c-.367.166-.757.26-1.193.26-.436 0-.849-.094-1.193-.284a3.104 3.104 0 0 1-.918-.758v3.41h-1.056V3.885h1.056v.924c.252-.355.574-.616.918-.805.367-.166.757-.26 1.193-.26Zm-.138 5.4c.299 0 .597-.047.849-.19.253-.118.459-.284.643-.473.183-.19.321-.426.413-.71.092-.261.138-.545.138-.853 0-.284-.046-.569-.138-.853a2.216 2.216 0 0 0-.413-.71 1.836 1.836 0 0 0-.643-.474c-.252-.118-.527-.166-.849-.166-.321 0-.596.048-.849.166a2.18 2.18 0 0 0-.642.474c-.184.19-.299.426-.413.686-.092.261-.138.545-.138.853 0 .308.046.592.138.853.092.26.229.497.413.71.183.19.39.355.642.474.253.166.551.213.849.213Zm6.839 1.019c-.391 0-.735-.072-1.056-.19a2.072 2.072 0 0 1-.803-.521 2.156 2.156 0 0 1-.505-.829 3.167 3.167 0 0 1-.184-1.09V3.885h1.056v3.624c0 .497.138.9.39 1.184.252.284.62.45 1.102.45.481 0 .849-.142 1.101-.45.252-.284.39-.687.39-1.184V3.884h1.056v3.648c0 .805-.23 1.444-.666 1.918-.436.474-1.078.71-1.881.71Zm7.251-6.419c.413 0 .803.095 1.17.26.367.166.665.403.941.687.275.285.459.64.619 1.019.138.402.23.805.23 1.255 0 .45-.069.876-.23 1.255-.16.38-.344.735-.619 1.019a3.058 3.058 0 0 1-.941.687 2.82 2.82 0 0 1-1.17.26c-.436 0-.826-.095-1.194-.284a2.54 2.54 0 0 1-.894-.758v.9h-1.056V1.374h1.056v3.458c.252-.356.55-.616.894-.806.368-.19.758-.284 1.194-.284Zm-.115 5.376c.298 0 .597-.047.826-.165.252-.119.459-.26.643-.474.183-.19.298-.426.413-.687a2.57 2.57 0 0 0 .137-.853 2.53 2.53 0 0 0-.137-.829 1.89 1.89 0 0 0-.413-.686 2.198 2.198 0 0 0-.643-.474 1.913 1.913 0 0 0-.826-.166c-.298 0-.597.048-.826.166-.253.118-.459.26-.643.474-.183.19-.298.426-.39.686a2.53 2.53 0 0 0-.137.83c0 .307.046.592.137.852.092.26.23.497.39.687.184.19.39.355.643.474.229.118.505.165.826.165Zm4.36.877V1.374h1.055v8.644h-1.055v-.023Zm3.258-6.987a.806.806 0 0 1-.55-.213c-.161-.142-.23-.332-.23-.569 0-.213.069-.402.23-.544a.806.806 0 0 1 .55-.214c.207 0 .39.071.528.214a.762.762 0 0 1 .207.544c0 .237-.069.427-.207.569a.68.68 0 0 1-.528.213Zm-.527 6.987v-6.11h1.055v6.11h-1.055Zm4.314-2.842-.574.52v2.322h-1.056V1.374h1.056V6.37l2.662-2.487h1.445l-2.776 2.582 2.868 3.552h-1.4c0-.023-2.225-2.865-2.225-2.865Zm10.119-3.269v6.11h-1.01v-.876c-.252.332-.573.569-.917.758-.345.166-.735.26-1.171.26-.436 0-.826-.07-1.193-.26a3.058 3.058 0 0 1-.941-.687 2.767 2.767 0 0 1-.619-1.042 3.93 3.93 0 0 1-.23-1.279c0-.45.069-.876.23-1.279.16-.402.344-.71.619-.994.276-.284.574-.498.941-.663a2.833 2.833 0 0 1 1.193-.237c.436 0 .826.094 1.171.26.344.19.642.45.917.758v-.9c-.022.071 1.01.071 1.01.071Zm-3.006 5.258c.298 0 .597-.047.849-.19.253-.118.459-.284.643-.473.183-.19.321-.426.413-.71a2.57 2.57 0 0 0 .137-.853c0-.284-.046-.569-.137-.853a1.89 1.89 0 0 0-.413-.687 2.185 2.185 0 0 0-.643-.473c-.252-.119-.528-.166-.849-.166-.321 0-.597.047-.849.166a2.18 2.18 0 0 0-.642.473c-.184.19-.322.427-.413.71a2.646 2.646 0 0 0-.138.853c0 .308.046.593.138.853.091.26.229.497.413.71.183.19.39.356.642.474.252.119.551.166.849.166Zm6.31.995c-.206 0-.413-.024-.619-.071a1.86 1.86 0 0 1-.597-.237 4.315 4.315 0 0 1-.55-.426 2.267 2.267 0 0 1-.436-.593l.757-.592c.183.332.413.592.688.735.276.142.528.236.803.236.345 0 .597-.094.781-.26a.762.762 0 0 0 .275-.592.695.695 0 0 0-.161-.474c-.114-.118-.229-.237-.39-.308-.092-.047-.206-.118-.321-.166-.138-.047-.275-.118-.413-.165-.138-.071-.275-.119-.413-.19-.138-.07-.23-.118-.344-.166a1.59 1.59 0 0 1-.689-.663 1.78 1.78 0 0 1-.069-1.516c.092-.213.23-.378.391-.544.16-.142.367-.26.619-.356.23-.094.505-.142.803-.142.367 0 .712.071 1.056.237.344.166.619.403.826.734l-.666.664c-.16-.261-.367-.45-.596-.545a1.452 1.452 0 0 0-.666-.166c-.275 0-.482.071-.642.213a.746.746 0 0 0-.207.521c0 .119.046.26.115.38.069.118.207.236.39.33.207.096.436.214.689.309.275.118.504.237.757.355.321.166.55.379.734.616.184.237.275.544.275.923 0 .26-.045.498-.16.735a2.191 2.191 0 0 1-.436.592 1.987 1.987 0 0 1-.689.402c-.298.142-.573.19-.895.19Zm3.351-.142v-6.11h1.055v6.11h-1.055Zm2.707-6.11h1.033v.876c.184-.332.436-.593.757-.758.322-.166.712-.26 1.125-.26.298 0 .596.046.895.141.275.095.527.26.757.474.229.213.39.474.528.805.137.332.183.71.183 1.137v3.695h-1.055V6.608c0-.616-.138-1.09-.436-1.397a1.401 1.401 0 0 0-1.079-.474c-.252 0-.459.047-.665.142a1.37 1.37 0 0 0-.505.379 2.059 2.059 0 0 0-.344.592 2.611 2.611 0 0 0-.115.758v3.387h-1.056l-.023-6.11Zm6.839 6.11v-6.11h1.055v6.11h-1.055Zm2.707-6.11h1.033v.876c.184-.332.436-.593.757-.758a2.47 2.47 0 0 1 1.125-.26c.298 0 .596.046.895.141.275.095.527.26.757.474.229.213.39.474.528.805.137.332.183.71.183 1.137v3.695h-1.055V6.608c0-.616-.138-1.09-.436-1.397a1.401 1.401 0 0 0-1.079-.474c-.252 0-.459.047-.665.142a1.363 1.363 0 0 0-.505.379 2.059 2.059 0 0 0-.344.592 2.611 2.611 0 0 0-.115.758v3.387h-1.079v-6.11ZM44.448 17.075c.253.071.482.19.689.332.183.142.367.308.481.497.138.19.23.403.299.64.069.237.092.473.092.71 0 .308-.046.592-.161.9a2.747 2.747 0 0 1-.482.782c-.206.237-.482.402-.78.545a2.698 2.698 0 0 1-1.102.213h-3.373v-8.432h3.236c.367 0 .711.071.986.19.276.118.505.284.712.473.183.19.321.427.413.663.092.261.138.498.138.758 0 .38-.092.71-.299 1.042a1.622 1.622 0 0 1-.849.687Zm-3.281-2.747v2.345h1.95c.207 0 .413-.048.551-.119a1.3 1.3 0 0 0 .413-.284c.115-.118.184-.237.252-.403.046-.142.092-.308.092-.45a.799.799 0 0 0-.091-.402.773.773 0 0 0-.253-.355c-.115-.095-.23-.19-.39-.261a1.349 1.349 0 0 0-.55-.095l-1.974.024Zm2.088 6.276c.252 0 .482-.047.665-.118a1.05 1.05 0 0 0 .482-.332c.115-.142.23-.284.299-.45.068-.166.114-.331.114-.52 0-.19-.023-.356-.091-.546a1.268 1.268 0 0 0-.299-.473 1.268 1.268 0 0 0-.505-.332 2.137 2.137 0 0 0-.71-.118h-2.066v2.89h2.111Zm4.59-5.897a.808.808 0 0 1-.551-.213c-.161-.142-.23-.332-.23-.569 0-.213.069-.402.23-.544a.768.768 0 0 1 .55-.214c.207 0 .39.071.528.214a.763.763 0 0 1 .207.544c0 .237-.07.427-.207.569a.715.715 0 0 1-.528.213Zm-.551 6.987v-6.11h1.055v6.11h-1.055Zm7.136-.948v.924h-4.91v-.687l3.396-4.476h-3.19v-.924h4.612v.64l-3.396 4.523h3.488Zm1.193-5.163h1.033v.877c.184-.332.436-.569.757-.758.321-.166.712-.26 1.125-.26.298 0 .596.046.895.165.275.095.527.26.757.474.23.213.39.473.528.805.137.331.183.71.183 1.137v3.694h-1.056v-3.434c0-.616-.137-1.09-.435-1.397a1.4 1.4 0 0 0-1.079-.474c-.252 0-.459.047-.665.142a1.371 1.371 0 0 0-.505.38 2.084 2.084 0 0 0-.345.591c-.091.237-.114.474-.114.758v3.387h-1.056l-.023-6.087Zm12.346 2.937v.308c0 .095-.023.166-.023.237h-4.727c.046.237.114.45.206.663.092.213.23.403.39.545.161.165.368.284.62.379.252.094.528.142.872.142s.711-.071 1.101-.19c.367-.118.712-.284.964-.497l.459.829a3.88 3.88 0 0 1-1.079.592c-.458.166-.94.26-1.468.26-.574 0-1.033-.094-1.446-.284a2.672 2.672 0 0 1-.986-.734 2.915 2.915 0 0 1-.551-1.018 4.114 4.114 0 0 1-.184-1.185c0-.45.07-.876.207-1.255a3.19 3.19 0 0 1 .596-1.018c.253-.285.574-.521.941-.663.367-.166.78-.237 1.24-.237.412 0 .802.07 1.147.213a2.632 2.632 0 0 1 1.514 1.587c.115.402.207.829.207 1.326ZM65.1 16.389a1.63 1.63 0 0 0-.688.143c-.207.094-.39.213-.55.355a2.4 2.4 0 0 0-.414.545c-.114.213-.183.45-.23.686h3.672c-.046-.544-.23-.97-.55-1.279-.368-.284-.758-.45-1.24-.45Zm5.76 5.448c-.207 0-.413-.024-.62-.071a2.629 2.629 0 0 1-.597-.237 4.332 4.332 0 0 1-.55-.426 2.788 2.788 0 0 1-.436-.593l.757-.615c.184.331.413.592.688.734.276.142.528.237.78.237.345 0 .597-.095.78-.26a.797.797 0 0 0 .276-.593.697.697 0 0 0-.16-.474.994.994 0 0 0-.39-.308c-.092-.047-.207-.118-.322-.165-.138-.048-.252-.119-.413-.19-.138-.047-.275-.118-.413-.166-.138-.047-.23-.118-.344-.165a1.59 1.59 0 0 1-.689-.664 1.772 1.772 0 0 1-.068-1.515c.091-.213.206-.38.39-.545a1.4 1.4 0 0 1 .596-.355c.23-.095.505-.142.803-.142.368 0 .712.07 1.056.236.344.166.62.403.826.735l-.665.663c-.161-.26-.367-.45-.597-.545-.23-.095-.459-.166-.665-.166-.276 0-.482.071-.643.213a.708.708 0 0 0-.206.521c0 .119.045.261.114.38.07.118.207.236.39.331.207.095.436.19.689.308l.757.355c.321.166.574.38.734.616.184.237.276.545.276.924 0 .26-.046.497-.16.734a2.177 2.177 0 0 1-.437.592 1.986 1.986 0 0 1-.688.403c-.23.165-.528.213-.85.213Zm6.31-8.574h.528l3.534 5.353 3.51-5.353h.551v8.432h-1.101V16.01l-2.8 4.263h-.275l-2.8-4.264v5.708h-1.101c-.046-.023-.046-8.455-.046-8.455Zm11.336 1.398a.808.808 0 0 1-.551-.214.797.797 0 0 1-.23-.568c0-.213.07-.403.23-.545a.732.732 0 0 1 .55-.213c.207 0 .39.071.529.213a.764.764 0 0 1 .206.545c0 .237-.069.426-.206.568a.715.715 0 0 1-.528.214Zm2.203 0a.808.808 0 0 1-.551-.214.797.797 0 0 1-.23-.568c0-.213.07-.403.23-.545a.732.732 0 0 1 .55-.213c.207 0 .39.071.528.213a.764.764 0 0 1 .207.545c0 .237-.069.426-.207.568a.715.715 0 0 1-.527.214Zm-1.125 7.176a3 3 0 0 1-1.055-.19 2.073 2.073 0 0 1-.803-.52c-.23-.214-.39-.498-.505-.806a3.174 3.174 0 0 1-.184-1.09v-3.647h1.056v3.624c0 .497.137.9.39 1.184.252.284.62.45 1.101.45.482 0 .85-.142 1.102-.45.252-.284.39-.687.39-1.184v-3.624h1.055v3.648c0 .805-.23 1.444-.688 1.918-.436.474-1.056.687-1.859.687Zm4.108-8.787h1.032v3.292c.184-.26.436-.474.758-.663.32-.166.711-.26 1.124-.26.321 0 .597.047.895.165.275.095.528.26.734.474.207.213.39.474.505.805.115.332.207.71.207 1.137v3.695H97.89v-3.41c0-.617-.138-1.09-.436-1.398a1.4 1.4 0 0 0-1.079-.474c-.229 0-.458.047-.665.142a1.371 1.371 0 0 0-.505.38 1.62 1.62 0 0 0-.321.591 2.619 2.619 0 0 0-.115.758v3.41h-1.055l-.023-8.644Zm7.366 1.658a.808.808 0 0 1-.551-.213.795.795 0 0 1-.229-.569c0-.213.068-.402.229-.544a.808.808 0 0 1 .551-.214c.206 0 .39.071.527.214a.762.762 0 0 1 .207.544c0 .237-.069.427-.207.569-.114.142-.298.213-.527.213Zm-.528 6.987v-6.11h1.055v6.11h-1.055Zm6.586-.356a1.988 1.988 0 0 1-.735.38c-.275.07-.55.118-.849.118-.642 0-1.124-.213-1.445-.616-.322-.403-.459-.971-.459-1.682v-3.031h-1.056v-.924h1.056v-2.179h1.055v2.18h2.088v.923h-2.088v3.126c0 .38.069.663.207.877.138.213.39.331.734.331.184 0 .367-.024.551-.095.183-.07.344-.142.505-.26.023 0 .436.852.436.852Zm1.376-6.631a.806.806 0 0 1-.55-.213c-.161-.142-.23-.332-.23-.569 0-.213.069-.402.23-.544a.806.806 0 0 1 .55-.214c.207 0 .391.071.528.214a.762.762 0 0 1 .207.544c0 .237-.069.427-.207.569a.679.679 0 0 1-.528.213Zm-.527 6.987v-6.11h1.055v6.11h-1.055Zm10.693-6.11-2.616 6.11h-.734l-2.616-6.11h1.17l1.813 4.57 1.79-4.57h1.193Zm.597 3.15v-.309c0-.07.022-.165.022-.237h4.728a3.168 3.168 0 0 0-.207-.663 1.553 1.553 0 0 0-.39-.544 1.637 1.637 0 0 0-.62-.38 2.408 2.408 0 0 0-.872-.142c-.344 0-.711.072-1.101.19-.367.118-.711.284-.964.497l-.459-.829c.276-.213.62-.426 1.079-.592.459-.166.941-.26 1.468-.26.574 0 1.033.095 1.446.284.413.19.734.426.987.734.252.308.436.64.55 1.042.115.38.184.782.184 1.184 0 .45-.069.877-.207 1.256a2.863 2.863 0 0 1-.619 1.018 2.75 2.75 0 0 1-.941.663 2.94 2.94 0 0 1-1.216.237c-.413 0-.803-.07-1.147-.213a2.992 2.992 0 0 1-.918-.616 2.735 2.735 0 0 1-.597-.97 4.25 4.25 0 0 1-.206-1.35Zm2.868 2.13c.252 0 .482-.047.688-.141.207-.095.39-.213.551-.356a1.97 1.97 0 0 0 .413-.544 2.41 2.41 0 0 0 .23-.687h-3.672c.046.544.23.97.551 1.279.344.284.757.45 1.239.45Zm11.565-3.789c.253.071.482.19.689.332.206.142.344.308.481.497.138.19.23.403.299.64.069.236.092.473.092.71 0 .308-.046.592-.161.9a2.745 2.745 0 0 1-.482.782c-.207.237-.482.402-.78.544a2.7 2.7 0 0 1-1.102.214h-3.373v-8.432h3.236c.367 0 .711.071.986.19.276.118.505.284.712.473.183.19.321.427.413.663a2.2 2.2 0 0 1 .137.758c0 .38-.091.71-.298 1.042-.229.332-.505.569-.849.687Zm-3.281-2.747v2.345h1.95c.207 0 .413-.048.574-.119a1.3 1.3 0 0 0 .413-.284 1.17 1.17 0 0 0 .252-.403c.046-.142.092-.308.092-.45a.797.797 0 0 0-.092-.402.771.771 0 0 0-.252-.355 1.646 1.646 0 0 0-.39-.261 1.352 1.352 0 0 0-.551-.095l-1.996.024Zm2.111 6.276c.252 0 .482-.047.665-.118.207-.071.367-.19.505-.332.138-.142.23-.284.298-.45.069-.166.115-.331.115-.52 0-.19-.023-.356-.092-.546a1.251 1.251 0 0 0-.298-.473 1.269 1.269 0 0 0-.505-.332 2.136 2.136 0 0 0-.711-.118h-2.065v2.89h2.088Zm9.523-2.084v.308c0 .095-.023.166-.023.237h-4.727c.046.237.115.45.206.663.092.213.23.402.39.545.161.165.368.284.62.379.252.094.528.142.872.142s.711-.071 1.101-.19c.368-.118.689-.284.964-.497l.459.829a3.875 3.875 0 0 1-1.078.592c-.459.166-.941.26-1.469.26-.551 0-1.033-.094-1.446-.284-.413-.19-.734-.426-.986-.734a2.91 2.91 0 0 1-.551-1.018 4.105 4.105 0 0 1-.184-1.185c0-.45.069-.876.207-1.255.138-.379.344-.734.619-1.018.253-.285.574-.521.941-.664a2.94 2.94 0 0 1 1.216-.236c.413 0 .804.07 1.148.213.344.142.642.331.918.616.252.26.459.592.596.97.138.38.207.83.207 1.327Zm-2.869-2.132c-.252 0-.481.048-.688.143-.206.094-.39.213-.551.355-.16.166-.298.331-.413.544a2.44 2.44 0 0 0-.229.687h3.671c-.046-.544-.229-.97-.55-1.279a1.906 1.906 0 0 0-1.24-.45Zm9.271-.805-2.478 6.797c-.253.711-.551 1.208-.895 1.493a1.706 1.706 0 0 1-1.171.426c-.183 0-.367-.024-.527-.071a1.677 1.677 0 0 1-.413-.166l.137-.947c.115.047.23.095.345.118a.977.977 0 0 0 .367.047.942.942 0 0 0 .642-.236c.184-.166.367-.45.528-.83l.229-.544-2.57-6.11h1.217l1.835 4.594 1.584-4.595 1.17.024Zm.987 0h1.032v.877a1.97 1.97 0 0 1 .758-.758c.321-.166.711-.261 1.124-.261.298 0 .597.047.895.166.275.095.528.26.757.473.23.214.39.474.528.806.138.331.183.71.183 1.137v3.694h-1.055v-3.434c0-.616-.138-1.09-.436-1.397a1.4 1.4 0 0 0-1.079-.474c-.252 0-.459.047-.665.142a1.37 1.37 0 0 0-.505.38 2.082 2.082 0 0 0-.344.591 2.612 2.612 0 0 0-.115.758v3.387h-1.055l-.023-6.087Zm6.471 3.15v-.308c0-.07.023-.165.023-.237h4.727a3.168 3.168 0 0 0-.207-.663 1.553 1.553 0 0 0-.39-.544 1.64 1.64 0 0 0-.619-.38 2.416 2.416 0 0 0-.872-.142c-.345 0-.712.072-1.102.19a3.135 3.135 0 0 0-.964.497l-.459-.829c.276-.213.62-.426 1.079-.592.459-.166.941-.26 1.468-.26.551 0 1.033.095 1.446.284.413.19.734.426.987.734.252.308.436.64.551 1.042.114.38.183.782.183 1.184a3.7 3.7 0 0 1-.206 1.256 2.88 2.88 0 0 1-.62 1.018 2.74 2.74 0 0 1-.941.663 2.94 2.94 0 0 1-1.216.237c-.413 0-.803-.07-1.147-.213a3.004 3.004 0 0 1-.918-.616 2.735 2.735 0 0 1-.597-.97 4.278 4.278 0 0 1-.206-1.35Zm2.868 2.132c.252 0 .482-.048.688-.142.207-.095.391-.213.551-.356a1.97 1.97 0 0 0 .413-.544 2.41 2.41 0 0 0 .23-.687h-3.672c.046.544.23.97.551 1.279.367.284.757.45 1.239.45Zm4.245.829V13.05h1.056v8.645h-1.056Zm6.127 0-1.446-2.298-1.445 2.298h-1.262l2.088-3.174-1.882-2.937h1.216l1.308 2.155 1.331-2.155h1.239l-1.996 3.032 2.042 3.102h-1.193v-.023Zm7.917-6.11v6.11h-1.01v-.877c-.252.332-.574.569-.918.758-.344.166-.734.26-1.17.26-.436 0-.826-.094-1.193-.26a3.033 3.033 0 0 1-.941-.687 2.769 2.769 0 0 1-.62-1.042 3.956 3.956 0 0 1-.229-1.279c0-.45.069-.876.229-1.255a2.77 2.77 0 0 1 .62-.995c.275-.284.573-.497.941-.663a2.833 2.833 0 0 1 1.193-.237c.436 0 .826.095 1.17.285.344.189.643.426.918.758v-.9l1.01.023Zm-3.006 5.257c.298 0 .596-.047.849-.19.252-.118.459-.284.642-.473.184-.213.321-.426.413-.71.092-.261.138-.545.138-.853 0-.308-.046-.569-.138-.853a1.876 1.876 0 0 0-.413-.687 2.18 2.18 0 0 0-.642-.473 1.955 1.955 0 0 0-.849-.19c-.322 0-.597.047-.849.19a2.704 2.704 0 0 0-.643.473c-.183.19-.321.427-.413.71-.092.261-.138.545-.138.853 0 .285.046.569.138.853.092.26.23.497.413.71.184.214.39.356.643.474.252.119.55.166.849.166Zm4.658.853V13.05h1.055v8.645h-1.055Zm8.467-6.11v8.644h-1.078v-3.41c-.253.33-.574.568-.918.757-.344.19-.757.26-1.193.26-.436 0-.826-.094-1.194-.26a3.04 3.04 0 0 1-.94-.687 2.867 2.867 0 0 1-.62-1.018 3.283 3.283 0 0 1-.229-1.255c0-.45.068-.853.229-1.256.138-.378.344-.734.62-1.018.275-.284.573-.521.94-.687.368-.166.758-.26 1.194-.26.436 0 .849.094 1.193.284.344.19.665.45.918.781v-.923h1.078v.047Zm-3.052 5.257c.299 0 .597-.047.849-.19.253-.118.459-.284.643-.473.183-.213.298-.426.413-.71.092-.261.138-.545.138-.853 0-.308-.046-.569-.138-.853a1.89 1.89 0 0 0-.413-.687 2.185 2.185 0 0 0-.643-.473 1.949 1.949 0 0 0-.849-.19c-.321 0-.596.047-.849.19a2.18 2.18 0 0 0-.642.473c-.184.19-.299.427-.413.687-.092.26-.138.545-.138.853 0 .308.046.592.138.852.092.26.229.498.413.71.183.19.39.356.642.475.276.118.551.189.849.189ZM42.314 29.961h-1.125v3.434h-1.101v-8.432h2.776c.437 0 .804.071 1.125.213.321.142.597.332.803.569.206.236.367.497.482.805.092.308.16.616.16.924 0 .26-.045.52-.114.758-.07.26-.207.497-.344.71-.161.213-.368.403-.597.569-.23.165-.528.284-.826.355l2.272 3.505H44.47l-2.157-3.41Zm-1.148-1.09h1.469c.298 0 .55-.047.757-.118.207-.072.39-.19.505-.332.115-.142.23-.284.275-.45.046-.166.092-.355.092-.521a1.428 1.428 0 0 0-.367-.995 1.14 1.14 0 0 0-.436-.308 1.703 1.703 0 0 0-.62-.118h-1.675v2.842Zm11.29 1.35c0 .142 0 .237-.023.332-.023.094-.023.165-.023.236h-4.727c.046.237.115.45.207.664.092.213.23.402.39.544.16.166.367.285.62.38.252.094.527.141.872.141.344 0 .71-.07 1.1-.19a2.68 2.68 0 0 0 .965-.497l.459.83c-.253.213-.62.426-1.079.592-.459.165-.94.26-1.468.26-.551 0-1.033-.095-1.446-.284a2.673 2.673 0 0 1-.987-.734 2.913 2.913 0 0 1-.55-1.019 4.113 4.113 0 0 1-.184-1.184c0-.45.069-.876.206-1.255a3.19 3.19 0 0 1 .597-1.019c.252-.284.574-.497.94-.663.368-.166.781-.237 1.24-.237.413 0 .803.071 1.147.213.344.143.643.356.895.616.253.26.46.592.597.971.183.38.252.806.252 1.303Zm-2.868-2.132c-.252 0-.482.048-.688.143-.207.094-.39.213-.551.355-.16.142-.298.331-.413.544-.115.214-.184.45-.23.687h3.649c-.046-.544-.23-.97-.55-1.279-.322-.308-.735-.45-1.217-.45Zm9.27-.828-2.478 6.797c-.252.71-.55 1.184-.895 1.492a1.704 1.704 0 0 1-1.17.426c-.184 0-.367-.023-.528-.07a1.691 1.691 0 0 1-.413-.167l.138-.947c.092.047.206.095.344.118.138.048.252.048.367.048.23 0 .46-.071.643-.237.183-.166.367-.45.527-.829l.23-.545-2.57-6.11h1.216l1.836 4.595 1.583-4.595 1.17.024Zm4.865 5.755a1.99 1.99 0 0 1-.734.379c-.275.094-.55.118-.85.118-.642 0-1.124-.213-1.445-.616-.321-.402-.459-.97-.459-1.681v-3.032H59.18v-.924h1.055v-2.155h1.056v2.18h2.11v.923h-2.11v3.126c0 .38.069.663.206.877.138.213.39.331.758.331a1.5 1.5 0 0 0 .55-.095c.184-.07.345-.142.505-.26l.413.829Zm1.4-6.608a.807.807 0 0 1-.55-.213.797.797 0 0 1-.23-.569c0-.213.069-.402.23-.545a.808.808 0 0 1 .55-.213c.206 0 .39.071.528.213a.763.763 0 0 1 .206.545c0 .237-.069.427-.206.569a.822.822 0 0 1-.528.213Zm-.55 6.987v-6.11h1.055v6.11h-1.056Zm2.707-6.135h1.032v.877a1.97 1.97 0 0 1 .758-.758c.321-.19.711-.26 1.124-.26.321 0 .597.047.895.165.276.095.528.26.757.474.207.213.39.474.528.805.138.332.184.71.184 1.137v3.695h-1.056v-3.41c0-.617-.137-1.09-.436-1.398-.298-.308-.642-.474-1.078-.474-.253 0-.46.047-.666.142a1.37 1.37 0 0 0-.505.38 2.083 2.083 0 0 0-.344.591c-.092.237-.115.474-.115.758v3.41h-1.055l-.023-6.133Zm12.598 0v8.645h-1.056v-3.41c-.252.331-.573.568-.918.758-.344.189-.757.26-1.193.26-.436 0-.826-.095-1.17-.26a3.047 3.047 0 0 1-.941-.687 2.676 2.676 0 0 1-.62-1.019 3.687 3.687 0 0 1-.23-1.255c0-.45.07-.853.23-1.232a2.87 2.87 0 0 1 .62-1.018c.275-.284.574-.521.94-.687a2.82 2.82 0 0 1 1.171-.26c.436 0 .85.094 1.193.284.345.19.666.45.918.781v-.9h1.056Zm-3.052 5.258c.321 0 .596-.047.849-.165.252-.119.459-.285.642-.474a1.98 1.98 0 0 0 .413-.71c.092-.261.138-.545.138-.853a2.76 2.76 0 0 0-.138-.853 1.88 1.88 0 0 0-.413-.687 2.185 2.185 0 0 0-.642-.473 1.953 1.953 0 0 0-.85-.19c-.32 0-.596.047-.848.19a2.184 2.184 0 0 0-.643.473 1.88 1.88 0 0 0-.413.687c-.092.26-.138.545-.138.853 0 .308.046.592.138.852.092.26.23.498.413.71.184.214.39.356.643.475.275.118.55.165.849.165Zm4.681.877V24.75h1.055v8.645h-1.055Zm2.364-2.96v-.309c0-.095.022-.166.022-.237h4.728a3.173 3.173 0 0 0-.207-.663 1.556 1.556 0 0 0-.39-.544 1.637 1.637 0 0 0-.62-.38 2.412 2.412 0 0 0-.872-.142c-.344 0-.711.072-1.101.19a3.125 3.125 0 0 0-.964.497l-.459-.829c.253-.213.62-.426 1.079-.592.459-.165.94-.26 1.468-.26.551 0 1.033.095 1.446.284.413.19.734.426.987.734.252.308.436.64.55 1.042.115.38.184.782.184 1.184 0 .45-.069.877-.207 1.28a3.19 3.19 0 0 1-.596 1.018 2.742 2.742 0 0 1-.941.663c-.367.166-.78.237-1.24.237-.412 0-.802-.071-1.147-.213a2.754 2.754 0 0 1-.917-.616 2.74 2.74 0 0 1-.597-.971 4.63 4.63 0 0 1-.206-1.374Zm2.868 2.107c.252 0 .482-.047.688-.142.207-.095.39-.213.551-.355.16-.142.298-.332.413-.545.115-.213.184-.45.23-.687h-3.672c.046.545.23.971.55 1.279.345.308.758.45 1.24.45Zm4.245-5.282h1.01v.9c.183-.355.413-.639.688-.805.275-.166.62-.26 1.01-.26.115 0 .23 0 .344.023.115 0 .23.048.367.071l-.092 1.066a1.876 1.876 0 0 0-1.239.024 1.49 1.49 0 0 0-.528.355c-.16.166-.275.38-.344.616-.092.26-.115.545-.115.9v3.245H91.03V27.26h-.046Zm8.422-.9a.808.808 0 0 1-.551-.213.797.797 0 0 1-.23-.568c0-.213.07-.403.23-.545a.732.732 0 0 1 .55-.213c.207 0 .39.071.528.213a.764.764 0 0 1 .207.545c0 .237-.069.426-.207.568a.753.753 0 0 1-.528.213Zm2.202 0a.806.806 0 0 1-.55-.213.796.796 0 0 1-.23-.568c0-.213.069-.403.23-.545.137-.142.321-.213.55-.213.207 0 .391.071.528.213a.763.763 0 0 1 .207.545c0 .237-.069.426-.207.568a.752.752 0 0 1-.528.213Zm-1.124 7.177a3 3 0 0 1-1.055-.19 2.073 2.073 0 0 1-.804-.52 2.256 2.256 0 0 1-.504-.806 3.277 3.277 0 0 1-.184-1.09v-3.647h1.056v3.624c0 .497.137.9.39 1.184.252.284.619.45 1.101.45s.849-.142 1.101-.45c.253-.284.391-.687.391-1.184v-3.624h1.055v3.648c0 .805-.229 1.444-.688 1.918-.436.45-1.056.687-1.859.687Zm8.536-1.09v.924h-4.91v-.687l3.396-4.476h-3.19v-.924h4.612v.64l-3.373 4.523h3.465Zm1.193-5.187h1.01v.9c.184-.355.413-.639.689-.805.275-.166.619-.26 1.009-.26.115 0 .23 0 .344.023.115 0 .23.048.368.071l-.092 1.066a1.878 1.878 0 0 0-.62-.095 1.7 1.7 0 0 0-.619.119 1.49 1.49 0 0 0-.528.355 1.464 1.464 0 0 0-.344.616c-.092.26-.138.545-.138.9v3.245h-1.056c-.022 0-.023-6.135-.023-6.135Zm3.947 3.174v-.308c0-.094.023-.166.023-.236h4.727a3.224 3.224 0 0 0-.206-.664 1.565 1.565 0 0 0-.39-.544 1.647 1.647 0 0 0-.62-.38 2.414 2.414 0 0 0-.872-.142c-.344 0-.711.072-1.101.19a3.113 3.113 0 0 0-.964.497l-.459-.829a3.875 3.875 0 0 1 1.078-.592c.459-.165.941-.26 1.469-.26.551 0 1.033.095 1.446.284.413.19.734.426.986.734.253.308.436.64.551 1.042.115.403.184.782.184 1.184 0 .45-.069.877-.207 1.28a2.879 2.879 0 0 1-.619 1.018 2.749 2.749 0 0 1-.941.663 2.94 2.94 0 0 1-1.216.237c-.414 0-.804-.071-1.148-.213a3.014 3.014 0 0 1-.918-.616 2.733 2.733 0 0 1-.596-.971c-.138-.38-.207-.9-.207-1.374Zm2.869 2.108c.252 0 .481-.047.688-.142.206-.095.39-.213.551-.355a1.99 1.99 0 0 0 .413-.545 2.44 2.44 0 0 0 .229-.687h-3.648c.045.545.229.971.55 1.28.322.307.735.45 1.217.45Zm9.408-2.866-1.125 1.35v2.345h-1.101v-8.432h1.101v4.595l3.741-4.595h1.308l-3.236 3.98 3.534 4.452h-1.377l-2.845-3.695Zm7.687 3.86a3.17 3.17 0 0 1-1.262-.26 2.989 2.989 0 0 1-.987-.687c-.275-.284-.482-.639-.642-1.018a3.283 3.283 0 0 1-.23-1.255c0-.45.069-.853.23-1.232.16-.379.367-.734.642-1.018a2.99 2.99 0 0 1 .987-.687 3.17 3.17 0 0 1 1.262-.26c.459 0 .872.094 1.262.26a3 3 0 0 1 .987.687c.275.284.482.64.642 1.018.161.38.23.806.23 1.232 0 .45-.069.876-.23 1.255-.16.379-.367.734-.642 1.018a3 3 0 0 1-.987.687 3.17 3.17 0 0 1-1.262.26Zm0-1.018c.298 0 .551-.047.803-.165.252-.119.459-.285.643-.474.183-.213.321-.426.436-.71.114-.261.16-.545.16-.853a2.26 2.26 0 0 0-.16-.853 2.328 2.328 0 0 0-.436-.687 2.197 2.197 0 0 0-.643-.473 1.905 1.905 0 0 0-.803-.19c-.275 0-.551.047-.803.19a2.184 2.184 0 0 0-.643.473c-.183.19-.321.427-.436.687a2.1 2.1 0 0 0-.16.853c0 .308.046.592.16.852.115.26.253.498.436.71.184.214.39.356.643.475.229.118.505.165.803.165Zm11.221-5.4c.367 0 .688.072.987.19.298.118.527.308.734.52.206.238.367.498.482.83.115.331.16.687.16 1.09v3.647h-1.055v-3.482c0-.592-.138-1.018-.39-1.326-.253-.308-.597-.45-1.033-.45-.229 0-.459.047-.642.142a1.879 1.879 0 0 0-.505.379 1.701 1.701 0 0 0-.321.568 2.45 2.45 0 0 0-.115.735v3.434h-1.056v-3.458c0-.569-.137-1.019-.39-1.327-.252-.307-.619-.473-1.055-.473-.23 0-.436.047-.643.142a1.601 1.601 0 0 0-.505.379 1.737 1.737 0 0 0-.321.568c-.092.213-.115.474-.115.758v3.41h-1.055v-6.11h1.032v.9c.161-.331.413-.592.735-.781.321-.19.665-.285 1.078-.285.39 0 .757.095 1.102.285.344.19.596.473.757.852.206-.331.482-.615.872-.829.367-.213.803-.308 1.262-.308Zm4.475-.71a.806.806 0 0 1-.551-.213c-.161-.142-.23-.332-.23-.569 0-.213.069-.402.23-.544a.806.806 0 0 1 .551-.214c.206 0 .39.072.527.214a.762.762 0 0 1 .207.544c0 .237-.069.427-.207.569a.678.678 0 0 1-.527.213Zm-.528 6.987v-6.11h1.055v6.11h-1.055Zm4.36.118c-.207 0-.413-.023-.62-.07a1.855 1.855 0 0 1-.596-.238 4.26 4.26 0 0 1-.551-.426 2.288 2.288 0 0 1-.436-.592l.757-.616c.184.332.413.592.688.734.276.142.528.237.781.237.344 0 .596-.095.78-.26a.798.798 0 0 0 .275-.592c0-.19-.046-.332-.16-.45-.115-.119-.23-.237-.391-.308-.091-.048-.206-.119-.321-.166a3.261 3.261 0 0 1-.413-.19c-.137-.07-.275-.118-.413-.19-.138-.07-.229-.118-.344-.165a1.586 1.586 0 0 1-.688-.663 1.769 1.769 0 0 1-.069-1.516c.091-.213.229-.379.39-.545.16-.142.367-.284.619-.355.23-.095.505-.142.803-.142.368 0 .712.071 1.056.237.344.166.62.403.826.734l-.665.663c-.161-.26-.367-.45-.597-.544-.229-.095-.459-.166-.665-.166-.276 0-.482.07-.643.213a.745.745 0 0 0-.206.52c0 .12.045.261.114.38.069.142.207.237.39.331.207.095.436.214.689.308.275.119.505.237.757.356.321.165.551.378.734.615.184.26.276.545.276.924 0 .26-.046.497-.161.734a2.17 2.17 0 0 1-.436.592 1.983 1.983 0 0 1-.688.403c-.276.166-.574.213-.872.213Zm5.002 0c-.206 0-.413-.023-.619-.07a1.86 1.86 0 0 1-.597-.238 4.328 4.328 0 0 1-.551-.426 2.311 2.311 0 0 1-.436-.592l.757-.616c.184.332.414.592.689.734.275.142.528.237.803.237.344 0 .597-.095.78-.26a.796.796 0 0 0 .276-.592c0-.19-.046-.332-.161-.45-.115-.119-.23-.237-.39-.308-.092-.048-.207-.119-.321-.166-.138-.048-.253-.119-.413-.19-.161-.07-.276-.118-.414-.19-.137-.046-.252-.118-.344-.165a1.591 1.591 0 0 1-.688-.663 1.769 1.769 0 0 1-.069-1.516 1.82 1.82 0 0 1 .39-.545c.161-.142.367-.284.62-.355a2.12 2.12 0 0 1 .803-.142c.367 0 .711.071 1.055.237.345.166.62.403.826.734l-.665.663c-.161-.26-.367-.45-.597-.544-.229-.095-.459-.166-.665-.166-.275 0-.482.07-.643.213a.75.75 0 0 0-.206.52c0 .12.046.261.115.38.068.142.206.237.39.331.206.095.436.214.688.308.276.119.505.237.757.356.322.165.551.378.735.615.183.26.275.545.275.924 0 .26-.046.497-.161.734a2.15 2.15 0 0 1-.436.592 1.983 1.983 0 0 1-.688.403c-.275.166-.574.213-.895.213Zm3.924-7.105a.81.81 0 0 1-.551-.213c-.16-.142-.229-.332-.229-.569 0-.213.069-.402.229-.544a.81.81 0 0 1 .551-.214c.207 0 .39.072.528.214a.766.766 0 0 1 .206.544c0 .237-.069.427-.206.569a.715.715 0 0 1-.528.213Zm-.551 6.987v-6.11h1.056v6.11h-1.056Zm7.848-6.135-2.478 6.798c-.253.71-.551 1.184-.895 1.492a1.744 1.744 0 0 1-1.17.426c-.184 0-.367-.023-.528-.07a1.693 1.693 0 0 1-.413-.166l.138-.948c.114.047.206.095.344.118a.977.977 0 0 0 .367.048.942.942 0 0 0 .642-.237c.184-.166.368-.45.528-.829l.23-.545-2.57-6.11h1.216l1.836 4.595 1.583-4.595 1.17.024Zm6.701 0v6.135h-1.01v-.877c-.252.332-.574.569-.918.758-.344.166-.734.26-1.17.26-.436 0-.826-.094-1.193-.26a3.035 3.035 0 0 1-.941-.687 2.769 2.769 0 0 1-.62-1.042 3.93 3.93 0 0 1-.229-1.279c0-.45.069-.876.229-1.255.161-.379.344-.71.62-.995.275-.284.573-.497.941-.663a2.833 2.833 0 0 1 1.193-.237c.436 0 .826.095 1.17.285.344.19.643.426.918.758v-.9h1.01Zm-2.983 5.258c.298 0 .596-.047.849-.165.252-.119.458-.285.642-.474.184-.213.321-.426.413-.71.092-.261.138-.545.138-.853 0-.284-.046-.569-.138-.853a1.876 1.876 0 0 0-.413-.687 2.192 2.192 0 0 0-.642-.473 1.957 1.957 0 0 0-.849-.19c-.322 0-.597.047-.85.19a2.716 2.716 0 0 0-.642.473c-.184.19-.321.427-.413.71a2.647 2.647 0 0 0-.138.854c0 .307.046.568.138.852.092.26.229.497.413.71.184.19.39.356.642.474.253.119.528.142.85.142Zm6.287.995c-.207 0-.413-.023-.62-.07a1.855 1.855 0 0 1-.596-.238 4.328 4.328 0 0 1-.551-.426 2.288 2.288 0 0 1-.436-.592l.757-.616c.184.332.413.592.689.734.275.142.527.237.803.237.344 0 .596-.095.78-.26a.794.794 0 0 0 .275-.592c0-.19-.045-.332-.16-.45-.115-.119-.23-.237-.39-.308-.092-.048-.207-.119-.322-.166-.137-.048-.252-.119-.413-.19-.16-.07-.275-.118-.413-.19-.137-.046-.252-.118-.344-.165a1.586 1.586 0 0 1-.688-.663 1.769 1.769 0 0 1-.069-1.516c.092-.213.229-.379.39-.545.161-.142.367-.284.62-.355.229-.095.504-.142.803-.142.367 0 .711.071 1.055.237.344.166.62.403.826.734l-.665.663c-.161-.26-.367-.45-.597-.544-.229-.095-.459-.166-.665-.166-.276 0-.482.07-.643.213a.75.75 0 0 0-.206.52c0 .12.046.261.115.38.068.142.206.237.39.331.206.095.436.214.688.308.275.119.505.237.757.356.322.165.551.378.735.615.183.26.275.545.275.924 0 .26-.046.497-.161.734a2.15 2.15 0 0 1-.436.592 1.983 1.983 0 0 1-.688.403c-.275.166-.574.213-.895.213Zm3.373-.118v-6.11h1.056v6.11h-1.056ZM15.582 0C7.757 0 1.4 6.56 1.4 14.637c0 8.076 6.357 14.637 14.182 14.637 7.824 0 14.18-6.56 14.18-14.637C29.763 6.56 23.407 0 15.583 0ZM28.73 14.566l-1.996-.853a11.57 11.57 0 0 0-2.731-6.655l.826-2.084c.023.023.046.023.046.047 2.478 2.534 3.855 5.968 3.855 9.545Zm-4.13 1.8 2.065-.9a11.513 11.513 0 0 1-2.616 6.584l-.872-2.132a9.688 9.688 0 0 0 1.423-3.552Zm-1.446 3.458-.987-2.416 2.34-1.018a8.726 8.726 0 0 1-1.353 3.434Zm-1.606-2.677 2.5 6.135-5.965-2.51-2.433 6.157-2.5-6.134-5.944 2.581 2.432-6.158-5.966-2.51 5.943-2.582-2.5-6.134 5.965 2.51 2.433-6.157 2.5 6.134 5.944-2.582-2.432 6.158 5.966 2.51-5.943 2.582Zm-.78 5.282 2.088.876c-1.79 1.587-3.993 2.558-6.357 2.748l.85-2.156a8.671 8.671 0 0 0 3.418-1.468Zm-3.374 1.397.964-2.416 2.34.995a8.743 8.743 0 0 1-3.304 1.421Zm-3.488.095.872 2.132a10.991 10.991 0 0 1-6.356-2.677l2.065-.9a8.433 8.433 0 0 0 3.42 1.445Zm-3.327-1.468 2.318-1.019.986 2.416a8.76 8.76 0 0 1-3.304-1.397Zm-2.547-2.487-.849 2.155C5.646 20.297 4.728 18 4.521 15.608l2.088.876a9.59 9.59 0 0 0 1.423 3.482Zm-1.354-3.458 2.34.995-.94 2.392c-.688-1.019-1.147-2.18-1.4-3.387Zm-.092-3.6-2.065.9a11.575 11.575 0 0 1 2.593-6.56l.872 2.13a9.77 9.77 0 0 0-1.4 3.53ZM8.01 9.474l.987 2.392-2.34.995A9.421 9.421 0 0 1 8.01 9.474Zm2.41-2.63-2.09-.875a10.802 10.802 0 0 1 6.334-2.747l-.85 2.155a8.576 8.576 0 0 0-3.396 1.469Zm3.35-1.397-.964 2.416-2.318-.995a8.864 8.864 0 0 1 3.282-1.42Zm3.488-.118-.872-2.132c2.34.166 4.59 1.114 6.379 2.677l-2.065.9a9.403 9.403 0 0 0-3.442-1.445Zm3.35 1.492-2.34 1.018-.987-2.415a8.295 8.295 0 0 1 3.327 1.397Zm2.524 2.44.85-2.132a11.846 11.846 0 0 1 2.684 6.56l-2.088-.876a9.567 9.567 0 0 0-1.446-3.552c0 .023 0 .023 0 0Zm1.377 3.529-2.364-.995.964-2.44a9.165 9.165 0 0 1 1.4 3.434Zm.321-7.816-1.996.876a10.864 10.864 0 0 0-6.471-2.724l-.85-2.06h.115a12.82 12.82 0 0 1 9.202 3.908Zm-9.316-3.908-.826 2.084c-2.387.19-4.636 1.184-6.425 2.795l-2.02-.853.046-.047c2.432-2.534 5.76-3.98 9.225-3.98ZM6.219 5.092l.85 2.084a11.75 11.75 0 0 0-2.64 6.656l-2.019.876v-.119c.023-3.552 1.377-6.963 3.81-9.497Zm-3.786 9.616 2.042.852a11.695 11.695 0 0 0 2.708 6.632L6.357 24.3l-.046-.047c-2.501-2.535-3.878-5.969-3.878-9.545ZM6.334 24.3l2.02-.876a10.864 10.864 0 0 0 6.47 2.723l.85 2.085h-.115A12.857 12.857 0 0 1 6.334 24.3Zm9.316 3.932.827-2.085a10.97 10.97 0 0 0 6.447-2.794l2.02.852-.046.048a12.995 12.995 0 0 1-9.248 3.979Zm9.294-4.05-.85-2.06a11.631 11.631 0 0 0 2.663-6.704l1.996-.876v.119c-.023 3.576-1.377 6.986-3.81 9.52Z"/><path d="M27.01 10.35a.548.548 0 0 0 .32-.497.712.712 0 0 0-.045-.214.531.531 0 0 0-.482-.331c-.069 0-.137.024-.206.047a.548.548 0 0 0-.322.498.71.71 0 0 0 .046.213.53.53 0 0 0 .482.331c.069-.023.138-.023.207-.047Zm-.39-.947c.046-.024.091-.024.16-.024.16 0 .298.095.367.26a.362.362 0 0 1 .023.166c0 .166-.092.332-.252.38-.046.023-.092.023-.16.023-.161 0-.322-.095-.368-.26-.023-.048-.023-.12-.023-.166a.43.43 0 0 1 .253-.38Zm-6.173-5.85a.576.576 0 0 0 .321-.498c0-.07-.023-.142-.045-.213a.519.519 0 0 0-.482-.332c-.07 0-.138.024-.207.048a.576.576 0 0 0-.321.497c0 .071.023.142.046.213a.497.497 0 0 0 .482.332c.069 0 .137-.024.206-.047Zm-.413-.924c.069-.024.115-.024.16-.024.161 0 .322.095.368.26.023.048.023.095.023.167 0 .165-.092.331-.253.378-.045.024-.091.024-.16.024a.394.394 0 0 1-.367-.26c-.023-.048-.023-.095-.023-.166a.495.495 0 0 1 .252-.38Zm-8.882.924a.576.576 0 0 0 .322-.498c0-.07 0-.142-.046-.213a.497.497 0 0 0-.482-.332c-.07 0-.138.024-.207.048a.576.576 0 0 0-.321.497c0 .071.023.142.046.213a.497.497 0 0 0 .482.332c.069 0 .137-.024.206-.047Zm-.39-.924c.046-.024.115-.024.16-.024.161 0 .3.095.368.26a.36.36 0 0 1 .023.167c0 .165-.092.331-.253.378-.045.024-.091.024-.16.024-.16 0-.321-.095-.367-.26-.023-.048-.023-.095-.023-.166 0-.166.091-.308.252-.38Zm-6.861 7.413c.092.19.276.332.482.332.07 0 .138-.024.207-.048.206-.07.321-.284.321-.497a.71.71 0 0 0-.046-.213c-.092-.19-.275-.332-.482-.332a.652.652 0 0 0-.206.048.548.548 0 0 0-.322.497c0 .095.023.166.046.213Zm.276-.64c.046-.023.092-.023.16-.023.161 0 .322.095.368.26.022.048.022.095.022.166 0 .166-.091.332-.252.38-.046.023-.115.023-.16.023-.161 0-.322-.095-.368-.26-.023-.048-.023-.12-.023-.166 0-.143.115-.308.253-.38Zm0 9.522a.548.548 0 0 0-.322.497.71.71 0 0 0 .046.213c.092.19.276.332.482.332.07 0 .138-.024.207-.048a.548.548 0 0 0 .321-.497c0-.071-.023-.142-.046-.213-.092-.19-.275-.332-.482-.332-.069.024-.137.024-.206.048Zm.321.852c-.046.024-.115.024-.16.024-.161 0-.322-.095-.368-.26-.023-.048-.023-.095-.023-.166 0-.166.092-.332.253-.38.046-.023.091-.023.16-.023.16 0 .322.095.367.26a.361.361 0 0 1 .023.166c0 .166-.114.308-.252.38Zm6.265 5.945a.548.548 0 0 0-.322.497c0 .072.023.142.046.214.092.19.276.331.482.331a.652.652 0 0 0 .207-.047.548.548 0 0 0 .321-.498c0-.07-.023-.142-.046-.213a.531.531 0 0 0-.482-.331.446.446 0 0 0-.206.047Zm.298.829c-.046.024-.092.024-.16.024a.394.394 0 0 1-.368-.26c-.023-.048-.023-.096-.023-.167 0-.165.092-.307.253-.379.046-.023.091-.023.16-.023.16 0 .322.095.367.26a.36.36 0 0 1 .023.166.406.406 0 0 1-.252.379Zm8.973-.829a.548.548 0 0 0-.321.497.71.71 0 0 0 .046.214.53.53 0 0 0 .482.331c.069 0 .137-.024.206-.047a.548.548 0 0 0 .321-.498.711.711 0 0 0-.045-.213c-.092-.19-.276-.331-.482-.331-.07 0-.138.023-.207.047Zm.321.829c-.046.024-.091.024-.16.024a.394.394 0 0 1-.367-.26c-.023-.048-.023-.096-.023-.167 0-.165.091-.307.252-.379.046-.023.092-.023.16-.023.161 0 .322.095.368.26a.362.362 0 0 1 .023.166c0 .166-.115.308-.253.379Zm6.93-7.318a.531.531 0 0 0-.482-.332c-.069 0-.137.024-.206.047a.548.548 0 0 0-.322.498c0 .07.023.142.046.213a.53.53 0 0 0 .482.331c.069 0 .138-.023.207-.047a.548.548 0 0 0 .32-.497c0-.071-.022-.142-.045-.213Zm-.367.544c-.046.024-.092.024-.16.024-.161 0-.322-.095-.368-.26-.023-.048-.023-.095-.023-.166 0-.166.092-.332.253-.38.046-.023.091-.023.16-.023.16 0 .298.095.367.26.023.048.023.095.023.166a.406.406 0 0 1-.252.38ZM15.788 8.692a8.537 8.537 0 0 0-.551 2.819c0 2.463.987 3.102.987 5.613 0 .402-.092 1.255-.528 1.255-.689 0 .023-1.634.023-2.842 0-1.232-1.01-2.842-.734-5.448-2.387 2.985-.804 6.585-.643 6.94.138.332.344.64.138.805-.184.166-.413 0-.528-.284-.574-1.397-.711-2.96-.482-4.879-1.193 1.848-1.216 3.648-.413 5.163-.115-.45-.298-1.326-.092-1.918.207 2.96 1.515 3.623 1.928 3.623.413 0 .573-.307.78-.307.184 0 .184.26.55.26.597 0 1.4-1.208 1.4-3.34 0-3.363-2.042-4.95-1.835-7.46Z"/><path d="M17.922 15.845c0 2.392-.826 3.102-.826 3.102 1.193-.9 1.904-2.344 1.927-3.86 0-2.084-2.042-3.79-2.386-4.998 0 1.919 1.285 3.15 1.285 5.756Zm-15.58 4.002c-.024-.047-.024-.094-.047-.142 0 .071.023.119.047.142Zm-.115-.284c-.024-.047-.024-.095-.047-.142.023.047.023.095.047.142Zm.412 1.09c-.07-.142-.115-.285-.184-.427.069.142.138.285.184.427Z"/><path d="M30.703 20.274c0-.048-.023-.071-.023-.071h-.023c-.023 0-.046.023-.046.047-.114.355-.252.734-.413 1.09l-.23.189c.024-.119.047-.237.07-.379.206-.45.39-.924.527-1.421v-.024c0-.023-.023-.047-.046-.047h-.022c-.023 0-.046.024-.046.047a6.37 6.37 0 0 1-.39 1.113c0-.142.023-.308.023-.497a6.81 6.81 0 0 0 .413-1.326v-.024c0-.024-.023-.047-.046-.047h-.023c-.023 0-.046.023-.046.047-.069.355-.16.687-.299 1.018v-.568c.138-.474.253-1.018.322-1.516 0-.023-.023-.047-.046-.047h-.023c-.023 0-.046.024-.046.047-.092.545-.23 1.16-.367 1.682l-.184.308c-.046.095-.114.19-.206.331l-.023.024c.137-.497.275-.995.367-1.421v-.024c0-.023-.023-.047-.046-.047h-.023c-.023 0-.046.024-.046.047a24.054 24.054 0 0 1-.482 1.8 4.08 4.08 0 0 0-.298.545l.023-.426c.184-.474.367-1.066.55-1.777v-.023c0-.024-.022-.048-.045-.048h-.023c-.023 0-.046.024-.046.048-.16.663-.367 1.326-.62 1.942l-.16.237a3.035 3.035 0 0 0-.299.45c.161-.663.482-1.374.597-2.014-2.02 5.827-7.366 9.687-13.355 9.687h-.023c-4.314 0-8.376-2.037-11.06-5.494 0 0 0 .023.023.023-.07.308-.276.71-.528.592-.298-.142-.184-.426-.115-.544.069-.143.046-.285-.275-.545a.341.341 0 0 1-.138-.284c0-.166.092-.308.252-.356 0 .024.023.024.023.048-.229-.38-.458-.758-.665-1.16.023.047.046.07.046.118 0 0 .252 1.042-.023.616-.367-1.303-.826-2.132-1.423-3.08-.023-.023-.023-.023-.046-.023 0 0-.023 0-.023.023-.023 0-.023.024-.023.048v.024c.46.686.85 1.444 1.17 2.226-.206-.308-.481-.592-.757-.853h-.091c-.023 0-.023-.023-.046-.023s-.023 0-.046.023v.048c0 .023 0 .023.023.047l.046.047c.459.403.849.758 1.124 1.635.23.781-.138 1.42-.665 1.42-.712 0-.987-.734-.987-1.018-.023-.473.413-.52.436-.9.023-.379-.62-.829-.78-.947-.23-.166-.367-.521.183-.758a.38.38 0 0 0 .184-.332.31.31 0 0 0-.092-.237c-.528-.615-.528-.876-.275-1.184.367-.473.918.308 1.078.758v.024c0 .024.023.047.023.047a8.185 8.185 0 0 1-.23-.805c-.137-.213-.366-.332-.619-.379a.51.51 0 0 0-.413.237c-.459.616-.046 1.184.207 1.421.046.024.206.166-.07.284-.39.142-.39.355-.412.497v.095c0 .095.023.19.046.285-.046 0-.092-.024-.161-.024a.74.74 0 0 0-.436.142c-.275.308.252.852.528 1.066-.023.094-.046.284.23.379.091.023.16.047.252.047h.091a.876.876 0 0 0-.045.26v.024c.023.403.275 1.256 1.216 1.256a.632.632 0 0 0-.092.355c0 .781.459.734.459.97 0 .19-.62.238-.62.759 0 .52.322.758 1.01.758.344 0 .39.047.39.094 0 .095-.482.26-.482.592 0 .119.07.498.62.687-.184.095-.321.213-.321.403 0 .142.068.355.504.521.23.095.46.142.712.166.046.07.137.118.23.142a.5.5 0 0 0 .183.379c.115.118.252.237.39.355-.46.024-.872.308-.94.71 0 .048-.024.095-.024.143 0 .142.046.284.138.379a.869.869 0 0 0 .573.308h.07c.137 0 .252-.024.39-.072.068-.023.137-.023.206-.047h.023s0 .024.023.024c.023.07.046.142.069.19.069.212.16.497.459.497-.184.45-.138.947.137 1.16a.256.256 0 0 0 .184.071c.252 0 .55-.308.757-.545.253-.307.459-.331.459-.331a1.3 1.3 0 0 0 .321.118.222.222 0 0 1 .184.213.218.218 0 0 1-.092.19.93.93 0 0 0-.252.64v.07c0 .403.32.758.734.758h.023c.964 0 .895-.734.872-.947-.023-.26.138-.213.206-.166.276.213.528.26.804.048.091-.072.16-.142.183-.26.115.117.252.188.413.188h.023a.61.61 0 0 0 .39-.142v.024c0 .118.07.237.184.308.046.024.092.047.138.047-.024.024-.046.024-.07.048-.045.023-.068.047-.114.07a.274.274 0 0 0-.069.19v.024c.023.26.39.332.62.332.069 0 .137 0 .206-.024a.803.803 0 0 0 .207-.095c.137-.095.298-.213.505-.331-.115.07-.207.165-.299.236l-.023.024a.285.285 0 0 0-.114.213v.048c.045.26.458.308.642.308.275 0 .528-.095.757-.261l.046-.047c.275-.26.55-.474.872-.687.39.237 1.354.829 1.446.876l.206.071c.092.024.184.024.299.024.573 0 1.055-.237 1.078-.521v-.024a.277.277 0 0 0-.183-.26c-.299-.143-.826-.403-1.4-.687l.046.023c.39.048 1.583.806 1.583.806.115.047.23.094.344.094h.023c.23 0 .643-.094.689-.355v-.047c0-.142-.07-.237-.207-.285-.023 0-.023 0-.046-.023-.046-.024-.069-.024-.115-.024-1.17-.402-1.629-.687-1.79-.781 1.08.45 2.18.852 3.282 1.184-.138.118-.574.402-1.537.545 0 .047.023.094.045.165.276.071.528.095.826.095h.115c.712-.024 1.4-.19 2.043-.521.023-.355.091-.687.183-1.018h.321c-.137.213-.252.426-.298.686a3.89 3.89 0 0 0 .987-.497l.482-.284c.23-.284.413-.616.505-.971-.046-.19-.161-.19-.161-.19-.528.071-1.033.119-1.469.166.826-.142 1.63-.402 2.41-.734a9.158 9.158 0 0 0 1.285-.616c.023 0 .023-.024.023-.047v-.024c-.023-.024-.023-.024-.046-.024h-.023a7.97 7.97 0 0 1-1.354.664 2.987 2.987 0 0 1-.803.094c-.23 0-.436-.023-.666-.07a7.875 7.875 0 0 0 3.19-1.375c.252-.142.482-.331.711-.52.023-.024.023-.024.023-.048s0-.024-.023-.047c-.023-.024-.023-.024-.046-.024s-.023 0-.046.024c-.206.166-.412.331-.62.473a4.203 4.203 0 0 1-1.514.38 8.542 8.542 0 0 0 2.25-1.28c.343-.213.688-.45 1.009-.71.023-.024.023-.024.023-.047 0-.024 0-.024-.023-.048-.023-.023-.023-.023-.046-.023s-.023 0-.046.023c-.367.284-.734.545-1.101.782a2.03 2.03 0 0 1-.987.237c.688-.214 1.285-.64 2.111-1.445.275-.213.55-.45.803-.71.023-.024.023-.024.023-.048s0-.024-.023-.047c-.023-.024-.023-.024-.046-.024s-.023 0-.046.024c-.252.236-.527.473-.803.686-.321.19-.665.332-1.032.38.688-.308 1.262-.9 1.72-1.469l.574-.592c0-.024.023-.024.023-.047 0-.024 0-.024-.023-.048 0-.024-.023-.024-.046-.024s-.023 0-.045.024a6.317 6.317 0 0 1-.551.568c-.16.095-.321.19-.505.237l.023-.023a4.724 4.724 0 0 0 1.17-1.374c.367-.426.689-.9.987-1.374v-.023c0-.024-.023-.048-.023-.048h-.023c-.023 0-.046.024-.046.024-.321.521-.665.995-1.078 1.468-.184.143-.413.26-.643.308.574-.402.757-.852 1.331-1.776.207-.284.413-.616.597-.924v-.023c0-.024-.023-.048-.023-.048h-.023c-.023 0-.046.024-.046.024-.16.308-.367.616-.55.9-.116.118-.207.213-.345.284.275-.379.482-.805.665-1.232.184-.307.322-.615.46-.947v-.023c0-.024-.024-.048-.024-.048h-.023c-.022 0-.045.024-.045.047a5.535 5.535 0 0 1-.413.83c-.07.094-.138.189-.207.284.207-.38.367-.9.55-1.73.093-.307.207-.591.3-.9ZM1.538 21.837c0 .047-.046.095-.092.095s-.069-.048-.069-.095.046-.095.092-.095.069.047.069.095ZM.23 21.22c.068-.118.62-.118.917.142-.091.213-.229.427-.39.592-.298-.213-.596-.592-.527-.734Zm.665 1.018c-.046 0-.092-.047-.092-.094 0-.048.046-.095.092-.095s.092.047.092.095c0 .047-.046.095-.092.095Zm.252-.497c.046 0 .092.047.092.095 0 .047-.046.095-.092.095-.045 0-.091-.048-.091-.095s.046-.095.091-.095Zm.023.497c-.045 0-.091-.047-.091-.094 0-.048.046-.095.091-.095.046 0 .092.047.092.095 0 .047-.046.095-.092.095Zm.115-.734c0-.047.046-.095.092-.095s.092.048.092.095c0 .048-.046.095-.092.095s-.092-.047-.092-.095Zm27.743-.023c.092-.38.665-1.16.849-1.492 0 1.278-.046 1.61-.367 1.989-.299.403-.666.213-.482-.497Zm0 .852-.023.024v-.047l.023.023Zm-.252-1.09c-.07.403.091.924.023 1.185-.07.26-.299.592-.46.26-.137-.331.092-1.042.437-1.444Zm-1.308 1.8c.068-.355.642-1.302.642-1.302-.183.853.253 1.54-.046 1.848-.298.284-.803.615-.596-.545Zm-.46 1.895c.276-.284.551-.615.78-.97.024-.024.024-.024.047-.024s.023 0 .023.023c.023 0 .023.024.023.048v.047a6.56 6.56 0 0 1-.803.995c-.07.166-.161.308-.23.426l.94-.97c.024-.024.024-.024.047-.024s.023 0 .046.023c.023.024.023.024.023.047 0 .024 0 .024-.023.048-.39.45-.803.852-1.24 1.255-.068.119-.16.213-.252.308-.321.332-.78.024-.459-.426.253-.355.803-.663 1.079-.806Zm-.298-.023c.16-.19.322-.403.46-.569-.024.142-.07.285-.161.38-.07.118-.184.165-.299.189Zm.115-.782c-.023 0-.023-.024-.046-.024s-.046 0-.046.024c-.069.095-.16.19-.23.284.047-.45.506-1.065.712-1.255 0 .308 0 .663-.023.947-.16.19-.39.45-.596.711-.046-.071-.092-.142-.092-.237.092-.118.206-.26.321-.402 0 0 .023-.024.023-.048 0 .048-.023.024-.023 0Zm-.459.569c-.895 1.113-.574 1.444-.826 1.776-.252.332-.459.474-.574.355-.114-.095.023-.52.345-.947.32-.427.688-.83 1.055-1.184Zm-7.09 6.892c-.482-.142-.46-.687.114-.805.62-.143 1.675.45 2.593.45-1.468.473-2.226.497-2.707.355Zm1.996.402c-1.102.427-2.088.593-2.96.474-.85-.095-.735-.9-.16-.947.733-.071 1.789.592 3.12.473Zm.023-1.018c.137 0 .275 0 .436-.024.137.071.275.119.413.19-.298-.024-.574-.095-.85-.166Zm-.689-.142c-.642-.095-.229-.687.138-.782.55-.142 1.262.427 1.928.498a3.663 3.663 0 0 1-1.492.307c-.206.024-.39 0-.574-.023Zm1.607-.569c.413 0 .849-.094 1.216-.26.092.047.16.095.275.142a6.31 6.31 0 0 1-.711.237c-.069 0-.138.023-.207.023-.183 0-.39-.047-.573-.142Zm-.184-.094c-.39-.024-.62-.332-.16-.663.573-.427 1.698.165 2.042.118-.758.45-1.515.568-1.882.545Zm.872-1.398c.298-.213 1.102.119 1.721.048-.688.426-1.078.615-1.583.473-.344-.094-.321-.379-.138-.52Zm.85.663c.206-.094.435-.189.619-.307.137 0 .275.023.413.047-.184.095-.344.19-.505.26a1.314 1.314 0 0 1-.321.048c-.046-.024-.138-.024-.207-.047Zm.252-.829c-.368 0-.482-.284-.184-.52.436-.38.964.023 1.79-.048-.872.497-1.24.568-1.606.568Zm.849-.047c.23-.095.482-.237.757-.402.092 0 .183 0 .275.023a5.312 5.312 0 0 1-1.032.521v-.141Zm.23-.758c-.414.024-.643-.237-.139-.52.436-.261 1.194-.024 1.721-.238-.734.616-1.17.758-1.583.758 0 .024 0 0 0 0Zm-.024-1.918c-.39.734-.275.663-.298 1.113-.046.426-.55.876-.55.142 0-.568.688-1.137.848-1.255ZM23.36 27.52c.23-.521.826-.971.826-.971-.344.687-.092 1.066-.459 1.421-.344.355-.573.095-.367-.45Zm-.092-.284c-.275.568.023.9-.413 1.373-.436.474-.62-.023-.39-.473.23-.403.574-.64.803-.9Zm-.665.403c-.62.734-.299 1.231-.803 1.705-.505.473-.712.023-.505-.427.23-.45.94-1.089 1.308-1.278Zm-1.102.497c-.436.781-.482 1.42-.849 1.776-.367.38-.94.095-.55-.568.344-.569 1.17-1.042 1.4-1.208Zm-1.285.592c-.55.947-.23 1.184-.94 1.895-.643.64-.78-.095-.574-.427.39-.592.918-1.09 1.514-1.468Zm-2.271 2.676c-.367.355-.803.095-.574-.45.367-.805 1.308-1.587 1.836-1.918-.758 1.113-.895 2.037-1.262 2.368Zm-.46.355c-.32.119-.71.261-1.124.45a.496.496 0 0 0-.137-.236c.367-.142.688-.26 1.01-.356.068.072.16.119.252.143Zm-.665-.189c-.413.426-1.032.213-.734-.426.298-.663 1.423-1.563 2.157-1.848-.964 1.09-.803 1.635-1.423 2.274Zm-.688-.853a.497.497 0 0 0-.092-.142.721.721 0 0 0-.252-.213c.413-.379.963-.781 1.491-.947-.413.402-.803.852-1.147 1.302Zm-.78-1.184c.298-.213.757-.237.849-.095.114.19-.253.616-.505.758a1.318 1.318 0 0 0-.344-.663Zm.091.521c.046 0 .092.048.092.095s-.046.095-.092.095c-.045 0-.091-.048-.091-.095s.046-.095.091-.095Zm-.137-.142c0 .047-.046.095-.092.095s-.092-.047-.092-.095c0-.047.046-.095.092-.095.069 0 .092.048.092.095Zm-.138-.402c.046 0 .092.047.092.094 0 .048-.046.095-.092.095s-.092-.047-.092-.095c0-.047.046-.095.092-.095Zm-.023.592c.046 0 .092.047.092.094 0 .048-.046.095-.092.095s-.092-.047-.092-.095c0-.047.046-.094.092-.094Zm-.206-.308c.046 0 .091.047.091.095 0 .047-.045.094-.091.094s-.092-.047-.092-.095c0-.047.046-.094.092-.094Zm-1.515-.38c.298-.141.55-.165.734.048.367.45-.069.971.551.995.62.047.826-.142 1.193.237.368.402-.688.829-.16 1.09.596.307.55.78.344 1.041a.476.476 0 0 1-.39.213.49.49 0 0 1-.436-.26c-.184-.379-.367-.355-.55-.213-.185.142-.391.497-.62.094-.23-.402-.023-.97-.597-.923-.597.07-.62.924-1.331.379a.742.742 0 0 1-.252-.45c0-.19.046-.38.114-.545h.023c.207-.047.39-.095.551-.118.207.094.367.213.482.402 0 .024.023.024.046.024h.023c.023-.024.023-.024.023-.047v-.024a1.015 1.015 0 0 0-.39-.379c.527-.095.895-.095 1.262.047.436.356.436.569.413.9 0 .024.023.048.046.071.022 0 .046-.023.068-.047 0-.26.023-.45-.137-.687.39.332.757.71 1.055 1.137.023.024.023.024.046.024s.023 0 .046-.024.023-.024.023-.047c0-.024 0-.024-.023-.048-.459-.592-.803-.97-1.147-1.208.367.048.872.095 1.124-.023.023 0 .046-.024.046-.048v-.023c0-.024-.023-.024-.046-.024h-.023c-.321.142-1.17.024-1.422-.071h-.024a2.336 2.336 0 0 0-.688-.119c-.138 0-.275.024-.413.048.344-.19.665-.45.94-.734 0-.024.024-.024.024-.048 0-.023 0-.023-.023-.047 0 0-.023-.024-.046-.024s-.023 0-.046.024c-.344.355-.757.64-1.216.876-.16.024-.321.071-.505.119a4.53 4.53 0 0 1 1.308-1.587Zm-.344 3.198c.16.142.321.26.482.38-.184.094-.39.212-.551.307.069-.142.092-.308.092-.474 0-.07 0-.142-.023-.213Zm0-.26a.401.401 0 0 1 .39-.285h.092l.23.119c0 .024 0 .047.022.07.023.19.069.356.16.498v.024a.677.677 0 0 0-.183.095c-.252-.142-.482-.332-.711-.521Zm-.39.52c-.046 0-.092-.047-.092-.094s.046-.095.092-.095.092.048.092.095-.046.095-.092.095Zm.069.214c0 .047-.046.095-.092.095s-.092-.048-.092-.095c0-.048.046-.095.092-.095s.092.047.092.095Zm-.253-.308c0 .047-.046.095-.092.095s-.091-.048-.091-.095.045-.095.091-.095.092.048.092.095Zm-6.402-7.2c.16.142.252.331.252.545 0 .07 0 .142-.023.213-.022 0-.045-.047-.091-.142-.046-.142-.207-.545-.528-.663.046-.024.092-.024.16-.024.092 0 .161.024.23.071Zm-1.469 3.505c-.436-.023-.94-.213-.94-.426s.573-.379.94-.332c.023.119.046.26.046.38-.023.118-.023.26-.046.378Zm.207.166c-.046 0-.092-.047-.092-.095 0-.047.046-.095.092-.095s.092.048.092.095c0 .048-.046.095-.092.095Zm.023-.355c-.046 0-.092-.048-.092-.095s.046-.095.092-.095.092.048.092.095-.046.095-.092.095Zm.023-.403c-.046 0-.092-.047-.092-.095 0-.047.046-.094.092-.094s.092.047.092.094c0 .048-.046.095-.092.095Zm-.023-.687c0 .048 0 .095.023.142-.184.119-.39.19-.62.19h-.046c-.642-.047-.917-.284-.917-.545 0-.237.527-.19.55-.568.023-.308-.344-.356-.642-.356-.78 0-.85-.284-.85-.473 0-.26.23-.285.551-.498.413-.236.138-.544-.137-.734-.276-.19-.505-.734-.023-1.018.482-.285.711-.048.94.473.184.427.574.214.712.048a.432.432 0 0 1 .275-.095c.07 0 .138.024.207.047.183.19.367.38.574.545.068.166.091.355.091.545H5.44a.692.692 0 0 0-.436.142.744.744 0 0 0-.368.592v.047c0 .048 0 .119.023.19a5.427 5.427 0 0 0-.367-.355c0-.166-.023-.308-.023-.474 0-.26.023-.521.046-.758 0-.024-.023-.047-.046-.047s-.046.023-.046.047c-.023.26-.046.521-.046.782v.331a11.342 11.342 0 0 1-1.193-1.634c0-.024-.023-.024-.046-.024h-.023c-.023 0-.023.024-.023.048v.023c.368.616.78 1.161 1.24 1.706H3.9a3.28 3.28 0 0 1-.826-.095h-.023c-.023 0-.046.024-.046.047v.024c0 .024.023.047.046.047.275.071.574.095.85.095.114 0 .206 0 .32-.024.161.19.345.38.551.545.069.095.138.19.23.26.252.214.275.285.275.309 0 0-.023.047-.069.07-.183.072-.344.19-.344.403Zm.206 1.113c.046 0 .092.048.092.095s-.046.095-.092.095c-.045 0-.091-.047-.091-.095.023-.047.046-.095.091-.095Zm-.023-.308c0-.047.046-.094.092-.094s.092.047.092.095c0 .047-.046.094-.092.094s-.092-.047-.092-.095Zm.07 1.114c-.39-.38.252-.545.504-.877.138-.213-.023-.426-.367-.734-.321-.284-.207-.426.046-.64.275-.212.138-.402-.184-.686-.39-.332-.344-.805 0-1.019.551-.331.803.142.941.498.138.355.344.26.574.118.298-.19.436.213.505.64.068.426.344.355.527.308.413-.072.597.142.712.426a.797.797 0 0 0-.138.45v.142a.62.62 0 0 0 .413.45c.069.024.115.047.184.071.436.213.459.26.436.379-.023.095-.07.095-.276.095h-.023c-.068 0-.137 0-.206.023-.275-.378-.757-.758-1.147-.758h-.023v-.544c0-.024-.023-.048-.07-.048-.022 0-.045.024-.045.048v.568c-.046.024-.115.048-.16.071-.093.071-.161.142-.23.213a9.874 9.874 0 0 0-.482-.994c0-.616.069-1.09.138-1.232v-.024c0-.023 0-.047-.023-.047H6.7c-.023 0-.046.024-.046.024-.092.166-.138.592-.16 1.09-.345-.57-.758-1.114-1.171-1.635 0-.024-.023-.024-.046-.024s-.023 0-.046.024-.023.024-.023.047v.048c.436.52.826 1.066 1.17 1.634a3.158 3.158 0 0 0-.459-.095 4.57 4.57 0 0 1-.55-.118h-.023c-.023 0-.046.024-.046.047v.024c0 .023.023.047.046.047.183.048.39.095.573.119.207.023.39.07.574.142.184.308.344.663.482.994 0 .024.023.024.046.024-.046.095-.069.19-.092.284a3.324 3.324 0 0 1-.803-.308h-.023c-.023 0-.046.024-.046.024v.024c0 .024 0 .047.023.047.252.142.55.237.826.308-.023.095-.046.119-.092.142a.433.433 0 0 1-.23.071.73.73 0 0 1-.32-.095.452.452 0 0 0-.551.048.656.656 0 0 0-.138.402v.119c-.137-.047-.298-.19-.459-.355Zm.206-.971c.046 0 .092.047.092.094 0 .048-.046.095-.092.095s-.092-.047-.092-.095c.023-.047.046-.094.092-.094Zm-.046-.332c0-.047.046-.095.092-.095s.092.048.092.095-.046.095-.092.095-.092-.048-.092-.095Zm1.308 4.974c-.138-.119-.184-.616.023-1.042.275.023.55.165.757.355-.069.19-.62.829-.78.687Zm.55-1.492c-.045 0-.091-.048-.091-.095s.046-.095.092-.095.091.047.091.095c0 .047-.045.095-.091.095Zm.115.094c.046 0 .092.048.092.095s-.046.095-.092.095-.091-.047-.091-.095c.023-.047.045-.095.091-.095Zm-.16.166c0 .048-.046.095-.092.095s-.092-.047-.092-.095c0-.047.046-.095.092-.095s.092.048.092.095Zm.252.308c-.046 0-.092-.047-.092-.095 0-.047.046-.094.092-.094s.092.047.092.094c0 .048-.046.095-.092.095Zm.092-.45c0-.047.046-.095.092-.095s.092.048.092.095-.046.095-.092.095-.092-.048-.092-.095Zm.184.474c-.046 0-.092-.048-.092-.095s.046-.095.092-.095c.045 0 .091.048.091.095-.023.047-.046.095-.091.095Zm.068-.569c-.114-.165-.298-.355-.459-.331-.367.023-.413.568-.895.592-.229 0-.229-.237-.367-.569-.114-.331-.459-.023-.826-.047-.16 0-.596-.142-.505-.616.092-.45.551-.497.827-.473.275.023.39-.024.39-.403s.23-.426.39-.332a.628.628 0 0 0 .413.143c.114 0 .23-.024.321-.072.298-.165.069-.568.505-.9.275-.213.849.214 1.147.616-.023.024-.046.048-.046.095s-.023.095-.023.142c0 .142.046.26.115.379.046.071.115.118.184.166-.184-.024-.367-.048-.528-.048-.207-.118-.826-.52-.826-.52H7.48c-.023 0-.046 0-.046.023v.024c0 .023 0 .047.023.047.023.024.413.26.665.426a3.727 3.727 0 0 0-1.101.261l-.046.024a1.027 1.027 0 0 1-.436-.19 2.48 2.48 0 0 0-.344-.19h-.023c-.023 0-.046.024-.046.048v.024c0 .023.023.047.023.047.115.047.23.118.344.19.092.047.184.118.298.165a3 3 0 0 1-.917.166c-.092 0-.207 0-.299-.023-.023 0-.046.023-.046.047 0 .023.023.047.046.047.115.024.207.024.322.024.367 0 .734-.071 1.078-.213a3.46 3.46 0 0 1-.482.663c-.023.024-.023.024-.023.047v.048c0 .023.023.023.046.023s.023 0 .046-.023c.23-.237.413-.521.55-.806a3.262 3.262 0 0 1 1.033-.236c-.206.189-.413.402-.573.615v.024c0 .024 0 .047.023.047 0 0 .023.024.045.024.023 0 .046 0 .046-.024a2.76 2.76 0 0 1 .689-.687c.23 0 .459.024.665.095-.023.048-.023.071-.046.119v.023c0 .19.092.356.253.427a.13.13 0 0 1 .069.118c0 .024-.023.071-.07.095-.252.166-.527.26-.825.284-.436.047-.643.213-.735.355Zm3.534 1.374h-.046c-.137 0-.252-.071-.298-.19-.046-.118-.092-.236-.138-.331a.508.508 0 0 1-.114-.308v-.024c0-.023 0-.07.023-.094.022-.024.045-.024.045-.024.046 0 .07.024.115.047l.023.024c.16.142.39.355.643.379.046 0 .114 0 .16-.024-.023.237-.114.498-.413.545Zm.413-.805c-.23.19-.528-.095-.711-.26-.207-.19-.528-.096-.505.236.023.332.528.734.138.995-.39.26-.689-.237-.964-.142-.275.094-.16.331-.252.734-.07.403-.62.521-.895.284a.605.605 0 0 1-.207-.474c0-.165.069-.331.184-.45a.512.512 0 0 0 .183-.402.578.578 0 0 0-.114-.332c-.161-.19-.735 0-.712-.497.023-.213.184-.403.643-.474.32-.024.62-.142.895-.331a.322.322 0 0 0 .16-.26c0-.12-.069-.214-.16-.285-.161-.095-.253-.38 0-.45.413-.142.71 0 .826.118.023.024.068.071.114.142-.046.024-.091.071-.137.095-.16.118-.344.237-.367.474v.023c0 .119.045.237.114.332-.091.095-.183.19-.252.308-.046.047-.55.379-.803.616-.023.023-.023.023-.023.047s0 .024.023.047c0 .024.023.024.046.024s.023 0 .046-.023c.16-.143.39-.308.55-.427a4.44 4.44 0 0 0-.55 1.8c0 .024.022.047.045.071.023 0 .046-.023.046-.047.046-.663.276-1.28.597-1.848 0 .332.092.64.252.924 0 .024.023.024.046.024h.023c.023 0 .023-.024.023-.048v-.023a2.109 2.109 0 0 1-.252-.971v-.024c.069-.095.137-.19.23-.284l.022.024c.184.189.46.284.826.284.23 0 .46-.024.666-.071h.046c.23.142.344.355.16.52Zm.23-1.113c-.023-.143-.07-.285-.115-.427 0-.165-.023-.331-.046-.497a4.496 4.496 0 0 1-.069-.782c0-.023-.023-.047-.069-.047-.045 0-.045.024-.045.047 0 .26.045.521.068.782 0 .047.023.118.023.166a3.596 3.596 0 0 0-.986-1.066v-.024c0-.308-.07-.616-.184-.9 0-.024-.023-.024-.046-.024h-.023c-.023.024-.023.024-.023.048v.024c.115.26.16.52.16.781l-.091-.07c-.505-.356-.964-.688-1.216-1.327 0-.024-.023-.048-.046-.048h-.023c-.023 0-.046.024-.046.048v.024c.275.663.757 1.042 1.262 1.397l.046.024c-.23.047-.459.07-.688.07h-.115c-.023 0-.046.024-.046.048s.023.047.046.071h.138c.275 0 .527-.047.803-.095.413.308.826.663 1.078 1.232-.321-.095-.596-.119-.872-.024-.023 0-.046.024-.046.047v.024c0 .024.023.024.046.024h.023c.23-.095.46-.095.872.047.046.166.092.332.115.498a.675.675 0 0 1-.459.236c-.436.072-.964.119-1.262-.165-.55-.545.482-.592.482-1.066 0-.474-.689-.497-1.125-.332-.504.19-.757-.308-.688-.52.069-.19.574.07.688-.332.115-.356-.252-.474-.688-.687-.436-.213-.321-.616-.138-.877a.592.592 0 0 1 .253-.165c.092-.024.734.426.872.64.137.212.114.118.459.118.344 0 .757.19.803.544.046.356.114.427.665.19.689-.26.78.616.735.97a1.291 1.291 0 0 1-.161.475c-.092.213-.23.497-.321.734.046.095.023.142 0 .166Zm.137 2.25c-.183-.119-.069-.498.115-.687.138.094.252.19.344.331.092.166-.252.498-.459.356Zm.528.686c-.39.095-.895-.142-.39-.26.321-.071.78.166.39.26Zm.344-.236c-.16-.119-.344-.214-.55-.214a22.908 22.908 0 0 1 1.744-.947c.068.071.16.118.275.118a.625.625 0 0 0 .413-.236c.023-.024.069-.048.092-.095a.172.172 0 0 1 .092-.047c.022 0 .068.023.114.118-.757.403-1.491.829-2.18 1.303Zm1.102.544c-.574.214-1.24 0-.803-.213.367-.166 1.353 0 .803.213Zm.183-.379a1.499 1.499 0 0 0-.55-.094 1.96 1.96 0 0 0-.39.047 17.06 17.06 0 0 1 2.019-1.137.69.69 0 0 0 .367.19c-.528.331-1.079.71-1.446.994Zm2.64.427c-.46-.071.068-.545.963-.45.528.047-.069.568-.964.45Zm.757-.64h-.161c-.344 0-.666.142-.918.38-.184-.12-.62-.332-1.147-.617.252-.165.505-.331.734-.473.597.284 1.147.568 1.492.71ZM16.36 32.78c.023-.071.046-.142.046-.213l.115-.048.16.072a1.708 1.708 0 0 0-.32.189Zm2.57.971c.413.166-.298.45-.642.284-.253-.142.252-.426.642-.284Zm-.298-.166c-.138-.024-.482.024-.597.19 0 0-.78-.356-1.285-.616a.367.367 0 0 1 .276-.213c.114-.024.826.379 1.606.64Zm1.216.9c.482-.19.826-.331.895-.426.184.095.344.166.528.213a3.43 3.43 0 0 1-1.193.213.38.38 0 0 1-.23 0Zm1.767-.426c-.94-.142-3.534-1.042-4.796-1.634.092-.071.207-.119.299-.166 1.376.474 2.937.663 4.773.852a6.398 6.398 0 0 0-.276.948Zm.757-.474c.092-.142.184-.26.299-.379l.298.024s-.574.355-.597.355Zm1.423-1.373a2.65 2.65 0 0 1-.39.71c-.252.024-.528.024-.78.024-.78 0-1.56-.048-2.34-.142.252-.142.481-.285.733-.45h.414c.78 0 1.583-.048 2.363-.142Zm-.183-.593c-.804.237-1.446.332-1.951.308.252-.07.505-.165.78-.236l.16-.048c.024 0 .047-.024.047-.047v-.024c0-.024-.023-.047-.046-.047h-.023l-.16.047c-.39.118-.758.237-1.08.332-.16-.024-.32-.095-.481-.166.39-.095.757-.237 1.124-.38.115-.023.23-.07.345-.117.413.213.849.355 1.285.378Zm1.79-1.302c-1.286.663-2.02.9-2.731.852a4.66 4.66 0 0 0 1.078-.426c.023-.024.023-.024.023-.047v-.024c0-.024-.023-.024-.046-.024h-.023a4.15 4.15 0 0 1-1.377.474.626.626 0 0 1-.344-.19c.436-.142.895-.307 1.308-.497.184-.047.367-.118.55-.213.322.119.758.213 1.561.095Zm.825-1.042c-.963.592-1.491.852-2.042.852h-.092c.207-.07.413-.19.689-.284l.046-.024c.023 0 .046-.023.046-.047v-.024c0-.023-.023-.047-.046-.047h-.023l-.046.024c-.321.142-.597.26-.826.355a.413.413 0 0 1-.184-.166c.299-.142.597-.308.872-.497.046-.024.069-.048.115-.071.092-.048.183-.095.275-.166.276.071.551.095.826.095.115.023.253.023.39 0Zm1.17-1.208c-.642.52-1.078.876-1.973.995h-.183c.091-.048.183-.119.298-.19.023-.024.023-.024.023-.047V28.8c0-.024-.023-.024-.046-.024h-.023c-.138.095-.275.166-.39.237-.069-.047-.16-.095-.184-.166.413-.165.826-.355 1.194-.615.091 0 .206.023.298.023.321-.047.666-.095.987-.19Zm-.848-.142c-.046.023-.115.023-.161.023a.452.452 0 0 1-.252-.07c.252-.143.482-.309.688-.498.023-.024.023-.024.023-.047 0-.024 0-.024-.023-.048-.023-.023-.023-.023-.046-.023s-.023 0-.046.023c-.206.19-.459.356-.688.498-.023-.024-.023-.072-.023-.095.321-.19.62-.38.895-.616h.137c.322 0 .643-.047.964-.118.322-.071-.62.781-1.468.97Zm2.248-2.203c-.71.805-1.032 1.066-1.4 1.137-.045 0-.091.024-.137.024h-.046c.184-.143.39-.308.643-.522.023-.023.023-.023.023-.047 0-.023 0-.023-.023-.047s-.023-.024-.046-.024-.023 0-.046.024c-.23.213-.46.402-.711.568a.457.457 0 0 1-.207-.213c.275-.213.528-.45.757-.734.413-.071.803-.142 1.194-.166Zm-1.927.734a.744.744 0 0 1 .298-.402c.092-.048.184-.095.276-.119-.184.19-.39.355-.574.521Zm1.17-.805c-.046.024-.069.024-.114.024-.138 0-.276-.071-.322-.19-.275.332-.596.64-.895.924h-.023c-.39.45-.62.616-.849.663-.367.095-.665-.118-.183-.497.275-.214.734-.214 1.147-.427.276-.26.528-.52.757-.805 0-.166.07-.284.184-.402.367-.38 1.239-.214 1.606-.687-.757 1.184-.94 1.302-1.308 1.397Zm.505-1.184H28.5a.359.359 0 0 1-.344-.356c0-.094.046-.189.115-.26.23-.26 1.01-.118 1.308-.474-.367.71-.735 1.042-1.033 1.09 0 0 0-.024 0 0Zm.711-1.184c-.298.284-.872-.024-.367-.593.276-.307.666-.426 1.033-.9-.069.782-.344 1.208-.666 1.493Z"/><path d="M2.457 20.155c-.023-.047-.047-.094-.047-.142 0 .048.024.095.047.142Zm1.65 3.079-.023-.023.023.023ZM3.03 21.482c-.024-.072-.07-.142-.092-.19.022.047.068.118.091.19Zm.849 1.421c.023.023.023.047.047.07-.024-.023-.047-.047-.047-.07Zm-1.102-1.99c-.023-.07-.069-.142-.091-.213a.594.594 0 0 0 .091.213Zm.113.284c-.022-.07-.068-.142-.091-.19.046.048.069.12.092.19Z"/></g><defs><clipPath id="a"><path fill="#fff" d="M0 0h190v36H0z"/></clipPath></defs></svg>