<svg xmlns="http://www.w3.org/2000/svg" width="106" height="36" fill="none" class="SvgIcon_root__AnyvP Footer_dxp__RCOiI SvgIcon_size_20__yOxOn"><g fill="#fff" clip-path="url(#a)" opacity=".7"><path d="M71.714 7.726a3.025 3.025 0 0 0 1.7 1.76c.394.158.838.237 1.31.237.523 0 .968-.08 1.387-.263.418-.184.785-.42 1.073-.736.288-.315.523-.683.68-1.104.157-.42.236-.893.236-1.392a4.28 4.28 0 0 0-.21-1.288c-.13-.42-.34-.814-.628-1.13-.288-.341-.654-.604-1.125-.814-.471-.21-.995-.316-1.649-.316-.602 0-1.152.105-1.675.29-.523.183-.916.42-1.23.656l.523.92c.314-.237.68-.42 1.1-.552.418-.131.837-.21 1.256-.21.366 0 .706.053.968.158.288.105.497.236.707.42.21.184.34.394.445.604.105.237.183.473.235.736h-5.365c0 .079-.026.184-.026.263v.342c.026.499.105.998.288 1.419ZM76.87 6.7c-.053.289-.131.525-.262.762-.13.236-.288.446-.471.604-.183.158-.393.29-.628.394a1.905 1.905 0 0 1-.785.158c-.55 0-.995-.158-1.388-.5-.366-.34-.575-.814-.628-1.418h4.162ZM69.985 0h-1.204v9.539h1.204V0Zm9.998 7.174c0 .788.183 1.419.524 1.865.34.447.89.684 1.622.684.314 0 .629-.053.943-.132.314-.105.602-.236.837-.42l-.445-.946c-.183.131-.366.21-.576.289-.209.079-.418.105-.628.105-.392 0-.68-.131-.837-.368-.157-.236-.236-.578-.236-.972V3.81h2.382V2.785h-2.382V.395h-1.204v2.39H78.78V3.81h1.204v3.364ZM58.025 1.787a.827.827 0 0 0 .602-.237c.157-.157.235-.367.235-.63a.834.834 0 0 0-.235-.605.827.827 0 0 0-.602-.236.936.936 0 0 0-.628.236.762.762 0 0 0-.262.605c0 .263.078.473.262.63.157.158.366.237.628.237Zm6.7 7.752 2.984-6.754h-1.335l-2.042 5.072-2.067-5.072H60.93l2.957 6.754h.838Zm-13.008 4.335c0 .263.078.473.261.631a.936.936 0 0 0 .629.237.827.827 0 0 0 .602-.237c.157-.158.235-.368.235-.63a.834.834 0 0 0-.235-.605.827.827 0 0 0-.602-.236.936.936 0 0 0-.629.236.762.762 0 0 0-.261.604Zm2.461-5.202c.314.315.68.578 1.126.762.444.184.916.289 1.44.289.523 0 .994-.106 1.412-.29a3.413 3.413 0 0 0 1.859-1.891c.183-.447.261-.894.261-1.393 0-.5-.078-.946-.261-1.367-.184-.42-.42-.814-.733-1.13a3.413 3.413 0 0 0-1.126-.762 3.575 3.575 0 0 0-1.413-.289c-.497 0-.995.106-1.44.29a3.413 3.413 0 0 0-1.858 1.891c-.183.42-.261.894-.261 1.367 0 .5.078.946.261 1.393.184.446.42.814.733 1.13Zm.393-3.443c.13-.289.288-.552.497-.762.21-.21.445-.394.733-.525.288-.132.602-.21.916-.21.314 0 .628.078.916.21.288.131.523.315.733.525.21.21.366.473.497.762.131.29.183.605.183.946 0 .342-.052.657-.183.946-.13.29-.288.552-.497.788-.21.21-.445.395-.733.526s-.602.21-.916.21c-.34 0-.628-.079-.916-.21a2.49 2.49 0 0 1-.733-.526 2.69 2.69 0 0 1-.497-.788 2.26 2.26 0 0 1-.183-.946c0-.341.078-.657.183-.946Zm.942-3.442a.827.827 0 0 0 .602-.237c.157-.157.235-.367.235-.63a.834.834 0 0 0-.235-.605.827.827 0 0 0-.602-.236.936.936 0 0 0-.628.236.857.857 0 0 0-.262.605c0 .263.079.473.262.63a.936.936 0 0 0 .628.237Zm-6.02 7.436a3.89 3.89 0 0 0 1.387-.92c.366-.394.654-.893.864-1.47.209-.579.314-1.21.314-1.92 0-.709-.105-1.366-.288-1.944-.21-.578-.471-1.077-.864-1.471a3.954 3.954 0 0 0-1.36-.946 4.773 4.773 0 0 0-1.78-.342H44.31v9.33h3.325c.706 0 1.308-.105 1.858-.316ZM45.567 1.42h2.12c.497 0 .942.079 1.309.263.366.184.706.42.942.736.261.315.445.683.575 1.077.131.42.184.867.184 1.366 0 .5-.053.946-.184 1.367-.13.42-.314.788-.575 1.103a2.867 2.867 0 0 1-.943.736c-.366.184-.81.263-1.308.263h-2.12V1.419Zm7.615 14.294h-1.204v6.753h1.204v-6.753Zm49.336-.184c-.445 0-.837.105-1.152.289-.314.184-.575.5-.785.893v-.998H99.43v6.753h1.204v-3.574c0-.367.052-.71.157-.972.104-.289.235-.5.392-.683.183-.184.367-.315.602-.394.21-.08.471-.132.707-.132.235 0 .471.053.707.105l.104-1.182a1.182 1.182 0 0 0-.418-.079c-.105-.026-.236-.026-.367-.026ZM82.706 28.616h-1.204v6.753h1.204v-6.753Zm-.784-9.512a4.28 4.28 0 0 0-.21-1.288c-.13-.42-.34-.815-.628-1.13-.288-.341-.654-.604-1.125-.815-.445-.21-.995-.315-1.65-.315-.601 0-1.15.105-1.674.29-.524.183-.916.42-1.23.656l.523.92c.314-.237.68-.42 1.1-.552a4.17 4.17 0 0 1 1.23-.21c.366 0 .706.052.968.157.288.106.523.237.707.42.183.185.34.395.444.605.105.237.184.473.236.736h-5.365c0 .079-.026.184-.026.263 0 .105-.027.21-.027.341 0 .552.079 1.025.236 1.446a3.026 3.026 0 0 0 1.701 1.76c.393.158.838.237 1.309.237.523 0 .968-.08 1.387-.263.419-.184.785-.42 1.073-.736.288-.315.523-.683.68-1.13.236-.42.34-.893.34-1.392Zm-1.544 1.287c-.131.237-.288.447-.472.605-.183.157-.392.315-.628.394a1.906 1.906 0 0 1-.785.157c-.55 0-.994-.157-1.387-.499-.393-.341-.576-.814-.628-1.419h4.161c-.026.263-.13.526-.261.762Zm6.332 1.025c-.209.079-.418.105-.627.105-.393 0-.68-.131-.838-.368-.157-.236-.236-.578-.236-.972v-3.442h2.382v-1.025H85.01v-2.391h-1.204v2.39h-1.203v1.026h1.203v3.363c0 .788.184 1.42.524 1.866.34.447.89.683 1.623.683.314 0 .628-.052.942-.131.314-.105.602-.237.837-.42l-.444-.947c-.184.08-.393.184-.576.263Zm-7.067 4.414H78.44v9.54h1.204v-9.54Zm17.537-9.17c-.288-.342-.654-.605-1.125-.815-.471-.21-.995-.315-1.649-.315-.602 0-1.152.105-1.675.289-.523.184-.916.42-1.23.657l.523.92c.314-.237.68-.42 1.1-.552.418-.132.837-.21 1.256-.21.366 0 .707.052.968.157.288.105.498.237.707.42.183.185.34.395.445.605.105.236.183.473.235.736H91.37c0 .079-.026.184-.026.263v.341c0 .552.078 1.025.235 1.445a3.024 3.024 0 0 0 1.702 1.761c.392.158.837.237 1.308.237.524 0 .969-.08 1.387-.263.42-.184.785-.42 1.073-.736.288-.315.524-.683.68-1.13.158-.42.237-.893.237-1.393 0-.446-.079-.867-.21-1.287a2.332 2.332 0 0 0-.576-1.13Zm-.68 3.731c-.131.237-.288.447-.471.605-.183.157-.393.315-.629.394a1.905 1.905 0 0 1-.785.157c-.55 0-.994-.157-1.387-.499-.366-.341-.576-.814-.628-1.419h4.162c-.053.263-.131.526-.262.762Zm9.054-7.121a.826.826 0 0 0-.602-.236.936.936 0 0 0-.628.236.763.763 0 0 0-.262.604c0 .263.079.473.262.631a.936.936 0 0 0 .628.237.826.826 0 0 0 .602-.237c.157-.158.236-.368.236-.63a.667.667 0 0 0-.236-.605Zm-15.651-.368H88.7v9.539h1.204v-9.539ZM75.404 29.615a2.708 2.708 0 0 0-1.046-.841 2.783 2.783 0 0 0-1.335-.316c-.498 0-.942.08-1.335.263a3.4 3.4 0 0 0-1.073.736c-.314.315-.524.683-.707 1.104-.157.42-.261.893-.261 1.392 0 .5.078.973.261 1.42.157.446.393.814.707 1.13.314.315.654.577 1.073.761.419.184.864.29 1.335.29.497 0 .942-.106 1.335-.29.392-.184.732-.473 1.046-.84v.972h1.152v-6.754h-1.151v.973Zm-.078 3.31c-.105.29-.262.552-.471.789-.21.21-.445.394-.733.525-.288.132-.602.184-.968.184-.34 0-.68-.079-.943-.184a2.487 2.487 0 0 1-.732-.525 1.98 1.98 0 0 1-.472-.788 2.758 2.758 0 0 1-.157-.947c0-.341.053-.63.157-.945.105-.29.262-.552.472-.762.209-.21.445-.395.732-.526a2.28 2.28 0 0 1 1.91 0c.289.131.525.315.734.525.21.21.366.473.471.763.105.289.157.604.157.946 0 .341-.052.656-.157.945Zm30.23-17.211h-1.204v6.753h1.204v-6.753ZM50.88 13.139h-1.518l-2.25 3.626-2.252-3.626h-1.44l2.932 4.598-3.088 4.73h1.491l2.356-3.705 2.33 3.705h1.465l-3.088-4.73 3.062-4.598Zm6.517 16.371a3.414 3.414 0 0 0-1.125-.763 3.674 3.674 0 0 0-2.853 0 3.414 3.414 0 0 0-1.858 1.892c-.184.42-.262.894-.262 1.367 0 .5.078.972.262 1.392.183.421.418.815.732 1.13.315.316.68.578 1.126.763.445.183.916.289 1.44.289.523 0 .994-.106 1.413-.29a3.414 3.414 0 0 0 1.125-.762c.314-.315.55-.709.733-1.13.183-.42.262-.893.262-1.392 0-.5-.079-.946-.262-1.367a3.367 3.367 0 0 0-.733-1.13Zm-.392 3.415c-.131.29-.288.552-.498.789-.21.21-.445.394-.733.525a2.197 2.197 0 0 1-.916.184 2.71 2.71 0 0 1-.916-.184 2.488 2.488 0 0 1-.733-.525 2.687 2.687 0 0 1-.497-.788 2.26 2.26 0 0 1-.183-.947c0-.341.052-.63.183-.945.131-.29.288-.552.497-.762.21-.21.445-.395.733-.526s.602-.21.916-.21c.34 0 .629.079.916.21.288.131.524.315.733.526.21.21.367.473.498.762.13.289.183.604.183.946 0 .341-.079.656-.184.945Zm-7.304-5.965c-.261-.262-.55-.499-.942-.656-.366-.158-.811-.237-1.335-.237h-3.088v9.329h1.256v-3.6h1.728c.55 0 .994-.08 1.387-.237.392-.158.706-.368.968-.657a2.6 2.6 0 0 0 .576-.92c.13-.341.183-.709.183-1.077 0-.341-.052-.71-.183-1.051a2.303 2.303 0 0 0-.55-.893Zm-.628 2.576c-.078.21-.183.394-.34.552-.157.157-.34.289-.576.394a2.072 2.072 0 0 1-.837.157h-1.754v-3.39h1.91c.289 0 .524.053.733.132.21.105.393.21.524.368.13.158.236.341.314.525.079.21.105.42.105.631.026.21-.026.42-.079.63Zm11.282-8.015v.946h1.204v-9.565h-1.204v3.784a3.131 3.131 0 0 0-1.02-.84 2.783 2.783 0 0 0-1.336-.316c-.497 0-.942.105-1.335.289a3.475 3.475 0 0 0-1.073.762c-.314.315-.55.683-.706 1.13a3.96 3.96 0 0 0-.262 1.366c0 .5.079.973.262 1.393.157.447.392.815.706 1.13.315.315.655.578 1.073.762.42.184.864.29 1.361.29.472 0 .917-.106 1.31-.29.392-.21.732-.473 1.02-.84Zm-1.256-.21c-.288.131-.602.184-.969.184-.366 0-.68-.079-.968-.184a2.487 2.487 0 0 1-.733-.526 2.624 2.624 0 0 1-.471-.788 2.758 2.758 0 0 1-.157-.946c0-.315.052-.63.157-.92.105-.289.262-.551.471-.762.21-.21.445-.394.733-.525.288-.132.602-.184.968-.184.34 0 .68.079.969.184.288.131.523.315.732.525.21.21.367.473.472.762.104.29.157.605.157.92 0 .342-.053.657-.157.946-.105.29-.262.552-.472.788a2.09 2.09 0 0 1-.732.526Zm3.794 7.121c-.445 0-.837.105-1.151.29-.315.183-.576.498-.786.893v-.999h-1.151v6.753h1.204v-3.573c0-.368.052-.71.157-.973.104-.289.235-.499.392-.683a1.5 1.5 0 0 1 .602-.394c.236-.079.471-.131.707-.131s.471.026.707.105l.104-1.183a1.183 1.183 0 0 0-.418-.079c-.105 0-.236-.026-.367-.026Zm5.209 5.886c-.21.08-.419.105-.628.105-.393 0-.68-.131-.838-.367-.157-.237-.235-.579-.235-.973v-3.442h2.382v-1.025H66.4v-2.391h-1.23v2.391h-1.204v1.025h1.204v3.363c0 .789.183 1.42.523 1.866.34.447.89.683 1.623.683.314 0 .628-.052.942-.131a2.79 2.79 0 0 0 .838-.42l-.445-.947c-.157.106-.367.184-.55.263Zm2.224-17.527c.209-.105.47-.157.733-.157.497 0 .89.157 1.177.499.288.341.445.814.445 1.471v3.837h1.204v-3.994c0-.447-.052-.841-.183-1.21a2.686 2.686 0 0 0-.55-.919 2.29 2.29 0 0 0-.837-.578 3.032 3.032 0 0 0-1.1-.21c-.523 0-1.02.105-1.465.341-.445.237-.76.526-.995.92a1.901 1.901 0 0 0-.863-.946 2.622 2.622 0 0 0-1.257-.315c-.445 0-.863.105-1.204.315-.366.21-.628.5-.837.867v-.998h-1.178v6.753h1.204v-3.784a2.7 2.7 0 0 1 .13-.84c.106-.237.21-.474.367-.631a1.56 1.56 0 0 1 .576-.42 1.75 1.75 0 0 1 .733-.158c.497 0 .89.183 1.204.525.288.368.445.841.445 1.472v3.81h1.204v-3.784c0-.315.052-.578.13-.815.08-.236.21-.446.367-.63s.34-.316.55-.42Zm-37.688-2.076v-.446h-5.994c-.262-4.178-4.214-7.49-9.03-7.49-4.816 0-8.768 3.312-9.03 7.49H2.593v4.44H.653v16.818h14.108v-7.699h5.732v7.699H34.6V18.709h-1.936v-3.994h-.026ZM8.925 32.216H4.109v-3.942h4.816v3.942Zm0-7.226H4.109v-3.968h4.816v3.968Zm11.097 0h-4.816v-3.968h4.816v3.968Zm11.098 7.226h-4.816v-3.942h4.816v3.942Zm0-7.226h-4.816v-3.968h4.816v3.968ZM23.398.552h-5.68V4.52h5.68V.552Z"/></g><defs><clipPath id="a"><path fill="#fff" d="M0 0h106v36H0z"/></clipPath></defs></svg>